<?xml version="1.0" encoding="UTF-8" standalone="no"?>
<!-- Created with Inkscape (http://www.inkscape.org/) -->

<svg
   width="297mm"
   height="210mm"
   viewBox="0 0 297 210"
   version="1.1"
   id="svg1"
   inkscape:export-filename="02_02_holonom.png"
   inkscape:export-xdpi="96"
   inkscape:export-ydpi="96"
   inkscape:version="1.4 (e7c3feb1, 2024-10-09)"
   sodipodi:docname="Zeichnung_2.svg"
   xmlns:inkscape="http://www.inkscape.org/namespaces/inkscape"
   xmlns:sodipodi="http://sodipodi.sourceforge.net/DTD/sodipodi-0.dtd"
   xmlns="http://www.w3.org/2000/svg"
   xmlns:svg="http://www.w3.org/2000/svg">
  <sodipodi:namedview
     id="namedview1"
     pagecolor="#ffffff"
     bordercolor="#000000"
     borderopacity="0.25"
     inkscape:showpageshadow="2"
     inkscape:pageopacity="0.0"
     inkscape:pagecheckerboard="0"
     inkscape:deskcolor="#d1d1d1"
     inkscape:document-units="mm"
     inkscape:zoom="0.5711732"
     inkscape:cx="611.89846"
     inkscape:cy="408.8077"
     inkscape:window-width="1712"
     inkscape:window-height="1070"
     inkscape:window-x="0"
     inkscape:window-y="42"
     inkscape:window-maximized="0"
     inkscape:current-layer="layer1" />
  <defs
     id="defs1" />
  <g
     inkscape:label="Ebene 1"
     inkscape:groupmode="layer"
     id="layer1">
    <path
       style="fill:#ff0000;stroke-width:0.264583"
       id="path1"
       d="m 54.099189,137.67508 c -0.715737,0.64468 -1.53643,1.28447 -1.974424,2.15609 -0.138969,1.27705 0.866717,2.27766 1.713844,3.11126 2.354525,1.86342 3.858739,3.36885 6.061226,1.621 0.823587,-0.84758 1.056407,-1.43338 0.741664,-2.58472 -0.339272,-0.75047 -0.772276,-1.4572 -1.375505,-2.022 -1.61785,-1.12485 -3.00427,-2.82844 -4.662644,-1.69773 -0.365791,0.24844 -0.682672,0.56025 -0.992454,0.87384 -0.208997,0.17766 -0.358535,0.35041 -0.437259,0.6134 0,0 3.540334,1.83822 3.540334,1.83822 v 0 c -0.02569,-0.13919 0.172789,-0.25182 0.28026,-0.37467 0.295341,-0.2826 0.584401,-0.57834 0.93998,-0.78659 1.439267,-0.63689 3.449889,1.52249 -2.347912,-1.9508 0.660029,0.48398 1.091281,1.12368 1.495358,1.83082 0.37642,0.98227 0.246084,1.4108 -0.508759,2.15735 -0.372586,0.2651 -0.741016,0.51875 -1.221658,0.52119 -0.134496,8e-4 -0.51023,-0.13804 -0.398521,-0.0631 0.813822,0.54565 4.272,2.57368 2.521442,1.51084 -0.799806,-0.67944 -1.747252,-1.57803 -1.917631,-2.64889 0.386096,-0.82556 1.213917,-1.42154 1.891319,-2.00209 z" />
    <path
       style="fill:#ff0000;stroke-width:0.264583"
       id="path2"
       d="m 62.561501,136.44122 c 1.692254,-2.39388 3.642958,-4.59804 5.516054,-6.85092 3.817358,-4.6722 7.320767,-9.5877 11.051728,-14.32702 1.198774,-1.5323 2.415617,-3.05019 3.640452,-4.56166 0,0 -3.271152,-1.9494 -3.271152,-1.9494 v 0 c -1.161944,1.55197 -2.329047,3.10005 -3.493174,4.65039 -3.659823,4.79141 -7.180797,9.69467 -11.109976,14.2742 -1.931212,2.2492 -3.921101,4.45249 -5.758778,6.77939 z" />
    <path
       style="fill:#ff0000;stroke-width:0.264583"
       id="path3"
       d="m 82.338076,101.41236 c 2.454425,1.70864 4.731096,2.81837 7.58273,3.32054 0.956144,0.14632 1.998925,0.24894 2.892687,-0.19327 0.657085,-0.5923 0.661969,-1.55041 0.625666,-2.37502 -0.05777,-0.84205 -0.420127,-1.4726 -1.07364,-1.98117 -1.866027,-1.418473 -4.038348,-2.301234 -6.073592,-3.41368 -0.75815,-0.51367 -1.4972,-0.601811 -2.368947,-0.385283 -0.826778,0.236868 -1.601404,0.673086 -2.193237,1.299167 -0.50645,0.549087 -0.533538,1.205177 -0.342855,1.891049 0.811914,1.792837 2.970419,2.796257 4.895366,2.993377 0.889423,0.0485 1.780397,0.0513 2.670873,0.0541 0.424471,-0.11528 0.70221,-0.31987 0.819407,-0.74394 0.103391,-0.42719 -0.03057,-0.81344 -0.202679,-1.20106 -0.05034,-0.0871 -0.100677,-0.17411 -0.151014,-0.26116 0,0 -3.617661,-1.613902 -3.617661,-1.613902 v 0 c 0.04877,0.08758 0.09753,0.175165 0.146299,0.262748 0.214027,0.280257 0.349459,0.576405 0.313222,0.931857 -0.02471,0.256407 -0.280242,0.281197 -0.511855,0.299057 -0.875541,0.009 -1.755815,0.0134 -2.62559,-0.0994 -0.229987,-0.0499 -0.87611,-0.329757 -0.674632,-0.208144 7.169639,4.327574 3.063925,2.223384 2.524863,1.258504 -0.254003,-0.53338 -0.293439,-1.04225 0.132527,-1.500955 0.55961,-0.55781 1.273572,-0.933918 2.044766,-1.10594 0.831985,-0.09892 1.508821,0.159126 2.213774,0.597072 0.442275,0.221507 0.889895,0.430978 1.325216,0.666205 0.162449,0.08778 0.642946,0.363428 0.483833,0.269738 -3.44697,-2.029675 -3.791151,-2.252401 -2.480805,-1.428917 0.663467,0.381759 1.13156,0.858499 1.217422,1.659767 0.07939,0.61153 0.137563,1.51274 -0.39175,1.93842 -0.882726,0.29921 -1.817351,0.19482 -2.718691,0.0341 -0.730777,-0.14395 -1.449337,-0.30299 -2.154164,-0.54959 -1.329838,-0.46529 -4.128931,-2.089156 1.369711,1.02451 z" />
    <circle
       id="path4"
       style="fill:#ff0000;stroke:#000000;stroke-width:0.264583"
       cx="98.667534"
       cy="98.667534"
       r="0.061701503" />
    <path
       style="fill:#ff0000;stroke-width:0.264583"
       id="path5"
       d="m 100.86344,99.820115 c 3.90163,-0.07576 7.80444,-0.06591 11.70664,-0.05976 3.55074,-0.08317 7.08457,0.241955 10.61264,0.588765 1.92291,0.27995 3.84243,0.57262 5.77537,0.77531 0.45299,0.043 0.90673,0.0719 1.36123,0.0916 0,0 -3.18611,-2.337763 -3.18611,-2.337763 v 0 c -0.44106,-0.02241 -0.88215,-0.04588 -1.32185,-0.08841 -1.90556,-0.181848 -3.79499,-0.483756 -5.69496,-0.712954 -3.50984,-0.317987 -7.02604,-0.597066 -10.55462,-0.502168 -3.95704,0.0063 -7.91462,0.01463 -11.871132,-0.05976 z" />
    <path
       style="fill:#ff0000;stroke-width:0.264583"
       id="path6"
       d="m 183.54081,101.10916 c 0.12597,4.43832 0.12687,8.87943 0.12754,13.31923 -0.008,4.45576 -0.0407,8.91142 -0.0512,13.36717 -0.0277,2.82857 -0.0527,5.65189 0.14535,8.47467 0.0519,0.78106 0.14142,1.55927 0.19826,2.33987 0.0358,0.50299 0.0326,1.00787 0.0296,1.51183 -0.003,0.34239 -0.004,0.68474 -0.012,1.02707 0.0948,2.7339 4.89005,2.21201 6.58526,2.19809 4.55723,-0.0391 9.11461,-0.0552 13.672,-0.0608 5.16549,0.0107 10.33096,0.007 15.49645,-0.002 5.44661,-0.14947 10.86922,0.31126 16.26027,1.03728 4.11512,0.67842 8.24286,1.26596 12.39996,1.60907 1.94291,0.1474 3.89043,0.20605 5.8382,0.23043 0.45655,0.006 0.91316,0.005 1.36971,0.002 0,0 -3.21038,-2.3278 -3.21038,-2.3278 v 0 c -0.4448,0.005 -0.88956,0.0135 -1.33439,0.0171 -1.90695,0.006 -3.81429,-0.045 -5.71694,-0.17761 -4.11929,-0.32158 -8.20925,-0.89174 -12.28771,-1.54954 -5.39734,-0.69993 -10.82382,-1.11684 -16.27196,-0.98612 -5.16516,-0.009 -10.3303,-0.0119 -15.49545,0.003 -4.6072,-0.002 -9.2145,-0.009 -13.82155,-0.0494 -0.43496,-0.006 -0.86996,-0.009 -1.30488,-0.0176 -0.31933,-0.006 -0.63872,-0.0117 -0.95782,-0.0251 -3.49845,-0.14741 5.28414,-0.23812 2.332,1.91099 -0.006,-0.34577 -0.005,-0.69154 -0.007,-1.03734 -0.002,-0.51189 0.006,-1.02396 -0.007,-1.53571 -0.0667,-0.79725 -0.21211,-1.58583 -0.27803,-2.38355 -0.29453,-2.82727 -0.30387,-5.66156 -0.2742,-8.50239 -0.0105,-4.47314 -0.0428,-8.94618 -0.0512,-13.41932 7.9e-4,-4.39646 2.3e-4,-8.79431 0.12754,-13.18926 z" />
    <path
       style="fill:#ff0000;stroke-width:0.264583"
       id="path7"
       d="m 251.61556,142.21081 c 1.97433,1.10275 -1.2454,-0.76524 -1.90107,-1.08553 -0.31688,-0.15478 0.58013,0.40154 0.86126,0.61447 0.79449,0.60174 1.52662,1.26229 2.23868,1.95735 0.58599,0.77412 1.40669,1.49982 1.73583,2.44035 -1.27241,-0.022 -2.5843,0.18226 -3.85388,0.34597 -1.60247,0.18507 -3.18017,0.54226 -4.75086,0.90317 -0.37172,0.0885 -0.19371,0.0528 -0.5333,0.11054 0,0 3.25694,2.26668 3.25694,2.26668 v 0 c 0.33958,-0.0819 0.16502,-0.0372 0.52342,-0.13517 1.52866,-0.39824 3.07557,-0.74625 4.64783,-0.91837 1.62022,-0.18372 0.64142,-0.0853 2.20622,-0.2149 0.52188,-0.0432 1.44246,0.0265 1.89731,-0.34221 0.0911,-0.0738 0.12535,-0.19811 0.18803,-0.29716 -0.17755,-1.05437 -1.16133,-1.82463 -1.72995,-2.67375 -2.26487,-2.30002 -4.92631,-4.06768 -7.88222,-5.41806 z" />
    <path
       style="fill:#ff0000;stroke-width:0.264583"
       id="path8"
       d="m 180.40586,104.40177 c 1.42606,-1.52331 2.974,-2.92507 4.54446,-4.2969 0.72648,-0.70113 1.53649,-1.296456 2.37302,-1.857203 1.23482,0.370927 1.84809,0.569259 -2.92191,-1.586526 -0.1981,-0.08953 0.33133,0.284136 0.47292,0.449101 0.19088,0.22239 0.35734,0.465132 0.52064,0.708493 0.26148,0.389665 0.82681,1.357609 1.0632,1.756847 0.66665,1.100048 0.3441,0.571588 0.96694,1.585838 0,0 3.5585,1.56956 3.5585,1.56956 v 0 c -0.64488,-1.01542 -0.3139,-0.48712 -0.99146,-1.58583 -1.1402,-1.942276 -3.06174,-5.935979 -6.00706,-5.025222 -0.82227,0.595415 -1.6259,1.209653 -2.34564,1.929796 -1.55027,1.40969 -3.04886,2.873166 -4.58415,4.298836 z" />
    <path
       style="fill:#ff0000;stroke-width:0.264583"
       id="path9"
       d="m 196.9709,131.24788 c 1.84494,-0.38782 3.63722,-1.13838 5.03925,-2.42893 0.42144,-0.38793 0.78427,-0.83508 1.1764,-1.25262 2.67206,-3.12648 4.13989,-6.94355 5.31161,-10.82778 0.76213,-2.83878 1.10114,-5.76585 0.82925,-8.69367 -0.30211,-2.5951 -3.2097,-3.87042 -5.62208,-4.05574 -1.37746,0.0356 -2.84702,0.28779 -3.8356,1.34289 -0.21967,0.23446 -0.38379,0.51538 -0.57569,0.77306 -0.74099,1.64855 -1.44831,3.7505 -0.67082,5.53008 0.14541,0.33283 0.39359,0.61055 0.59038,0.91582 3.68461,3.19342 6.9578,3.75238 11.4433,3.83 2.52608,0.0797 4.60923,-1.1018 6.77015,-2.22607 1.59631,-0.66734 4.71873,-2.31882 6.46337,-1.67387 0.36346,0.13436 0.64547,0.42893 0.96821,0.6434 -0.78579,-0.25574 -1.66673,-1.22094 -2.35737,-0.7672 -0.54544,0.35834 0.59397,1.16595 0.81669,1.7794 0.26896,0.74081 0.47285,1.50508 0.65423,2.27205 0.60454,2.55632 0.7798,5.10404 0.88312,7.71727 -0.0678,2.63792 -0.32326,5.51484 -2.42622,7.37993 -0.26922,0.23876 -0.58394,0.42065 -0.87591,0.63097 -1.04929,0.46296 -2.74449,1.41443 -3.9026,0.85544 1.04945,0.57082 2.05771,1.22496 3.14838,1.71246 0.11299,0.0505 -0.12203,-0.23131 -0.11037,-0.35453 0.0239,-0.25279 0.11028,-0.49918 0.21313,-0.73134 0.63167,-1.42589 1.75058,-2.54609 2.77043,-3.69286 2.29851,-2.46782 5.18859,-4.12545 8.2483,-5.45185 2.14305,-1.02441 4.51957,-1.69093 6.47,-3.09157 0.3278,-0.2354 0.61838,-0.51872 0.92757,-0.77808 0.24924,-0.34626 0.54474,-0.66352 0.74773,-1.03877 1.28729,-2.3796 1.33334,-5.90012 1.50967,-8.55222 -0.12506,-1.67654 0.41494,-3.74631 -0.54985,-5.25622 -1.24402,-0.7306 -2.45748,-1.51593 -3.73206,-2.19179 -0.44476,-0.23584 -2.61849,-0.0983 -3.19614,-0.0899 -0.74403,-0.0174 -2.4527,0.05 -2.06182,1.29379 0.11803,0.37558 0.38733,0.68553 0.58099,1.02829 2.97773,3.55415 6.67941,6.40634 10.32494,9.236 2.4597,2.0554 5.23517,3.58185 8.0009,5.17553 -1.06909,-0.61385 -2.13509,-1.23311 -3.20727,-1.84154 -0.0732,-0.0415 0.15229,0.0911 0.18985,0.16636 0.10285,0.20622 -0.006,0.47319 -0.0557,0.67304 -0.0885,0.40765 -0.23866,0.78449 -0.40582,1.16448 0,0 3.44974,1.94284 3.44974,1.94284 v 0 c 0.17722,-0.39801 0.34441,-0.78965 0.43487,-1.21837 0.62692,-2.17181 -0.82428,-1.94418 -3.4859,-3.37319 7.24297,4.19932 -0.29028,-0.0999 -1.46346,-1.30907 -3.62145,-2.77012 -7.2841,-5.56927 -10.24977,-9.06169 -0.0961,-0.13228 -0.77754,-0.91549 -0.71427,-1.19294 0.0914,-0.40086 1.54732,-0.38336 1.82891,-0.38877 0.67849,-0.006 1.36369,-0.0257 2.04071,0.0333 1.55432,0.13566 3.3727,1.4881 -1.91436,-1.58644 0.0973,0.0842 0.21484,0.1495 0.29188,0.25254 0.79249,1.05977 0.39598,3.59307 0.54124,4.81006 -0.1388,2.57222 -0.18967,6.02928 -1.46387,8.3298 -0.19149,0.34574 -0.46916,0.63616 -0.70374,0.95425 -0.29717,0.24523 -0.57756,0.51235 -0.89151,0.73571 -1.93994,1.38016 -4.28226,2.05699 -6.41102,3.06751 -3.09063,1.37258 -5.97202,3.11015 -8.29923,5.6094 -1.20386,1.31796 -2.85797,2.79911 -3.29398,4.62249 -0.0452,0.18894 -0.16408,0.46374 -0.0105,0.58269 1.12252,0.86946 2.42218,1.48225 3.63326,2.22337 1.41844,0.17902 2.81754,-0.57229 4.03051,-1.2058 0.30129,-0.23317 0.62639,-0.43846 0.90387,-0.6995 2.12803,-2.0019 2.37995,-4.96007 2.4204,-7.71823 -0.10706,-2.62788 -0.28164,-5.2012 -0.82826,-7.7827 -0.0897,-0.42369 -0.84398,-3.65243 -1.31069,-4.1325 -1.2092,-1.24381 -2.75569,-2.10786 -4.13353,-3.16179 -0.3579,-0.17007 -0.68866,-0.41664 -1.0737,-0.51023 -1.88371,-0.4579 -4.85043,1.16839 -6.56048,1.86054 -2.13048,1.06019 -4.18642,2.17619 -6.64982,2.0803 -1.54529,-0.0441 -3.07587,-0.12911 -4.59344,-0.45637 -0.46996,-0.10134 -1.66764,-0.77336 -1.39132,-0.37995 0.48464,0.69001 1.40906,0.92664 2.1073,1.39934 0.31033,0.21009 -0.62897,-0.40762 -0.94346,-0.61143 -0.21529,-0.26553 -0.48211,-0.49652 -0.64587,-0.79658 -0.88354,-1.61898 -0.1857,-3.67454 0.51761,-5.2018 0.1778,-0.2291 0.32874,-0.48183 0.5334,-0.68729 0.95651,-0.96023 2.39576,-1.11962 3.67736,-1.07488 0.22386,0.0371 0.45168,0.0553 0.67158,0.11119 0.1702,0.0433 0.6405,0.28083 0.49327,0.1851 -5.9073,-3.84076 -2.81704,-2.18358 -2.34967,-0.989 0.0868,0.22185 0.1284,0.45882 0.19261,0.68823 0.38212,2.8952 0.10587,5.79483 -0.64402,8.6181 -1.11828,3.84591 -2.5583,7.60796 -5.24909,10.65644 -0.38871,0.39604 -0.74843,0.8228 -1.16614,1.18812 -1.41437,1.23698 -3.22034,1.91952 -5.05897,2.19088 z" />
    <text
       xml:space="preserve"
       style="font-size:7.05556px;font-family:Arial;-inkscape-font-specification:Arial;text-align:end;writing-mode:lr-tb;direction:ltr;text-anchor:end;fill:#ff0000;stroke-width:0.264583"
       x="229.29779"
       y="68.557724"
       id="text9"><tspan
         sodipodi:role="line"
         id="tspan9"
         style="stroke-width:0.264583"
         x="229.29779"
         y="68.557724">C-Space</tspan></text>
    <text
       xml:space="preserve"
       style="font-size:7.05556px;font-family:Arial;-inkscape-font-specification:Arial;text-align:end;writing-mode:lr-tb;direction:ltr;text-anchor:end;fill:#ff0000;stroke-width:0.264583"
       x="96.351395"
       y="68.557724"
       id="text10"><tspan
         sodipodi:role="line"
         id="tspan10"
         style="stroke-width:0.264583"
         x="96.351395"
         y="68.557724">W-Space</tspan></text>
    <text
       xml:space="preserve"
       style="font-size:7.05556px;font-family:Arial;-inkscape-font-specification:Arial;text-align:start;writing-mode:lr-tb;direction:ltr;text-anchor:start;fill:#ff0000;stroke-width:0.264583"
       x="26.57893"
       y="180.19563"
       id="text11"><tspan
         sodipodi:role="line"
         id="tspan11"
         style="text-align:start;text-anchor:start;stroke-width:0.264583"
         x="254.77531"
         y="180.19563">--&gt; Aus Sicht der Achsen ist ein Industrieroboter holonom</tspan><tspan
         sodipodi:role="line"
         style="text-align:start;text-anchor:start;stroke-width:0.264583"
         x="254.77533"
         y="189.01508"
         id="tspan12">-&gt; &quot;Es muss nicht erst Achse 1 bewegt werden, um Achse 2 zu bewegen&quot;</tspan></text>
  </g>
</svg>
