<?xml version="1.0" encoding="UTF-8" standalone="no"?>
<!-- Created with Inkscape (http://www.inkscape.org/) -->

<svg
   width="297mm"
   height="210mm"
   viewBox="0 0 297 210"
   version="1.1"
   id="svg1"
   inkscape:export-filename="02_01_PTP.png"
   inkscape:export-xdpi="96"
   inkscape:export-ydpi="96"
   inkscape:version="1.4 (e7c3feb1, 2024-10-09)"
   sodipodi:docname="Zeichnung.svg"
   xmlns:inkscape="http://www.inkscape.org/namespaces/inkscape"
   xmlns:sodipodi="http://sodipodi.sourceforge.net/DTD/sodipodi-0.dtd"
   xmlns="http://www.w3.org/2000/svg"
   xmlns:svg="http://www.w3.org/2000/svg">
  <sodipodi:namedview
     id="namedview1"
     pagecolor="#ffffff"
     bordercolor="#000000"
     borderopacity="0.25"
     inkscape:showpageshadow="2"
     inkscape:pageopacity="0.0"
     inkscape:pagecheckerboard="0"
     inkscape:deskcolor="#d1d1d1"
     inkscape:document-units="mm"
     inkscape:zoom="0.8061701"
     inkscape:cx="500.51472"
     inkscape:cy="386.39488"
     inkscape:window-width="1712"
     inkscape:window-height="1042"
     inkscape:window-x="0"
     inkscape:window-y="70"
     inkscape:window-maximized="0"
     inkscape:current-layer="layer1" />
  <defs
     id="defs1" />
  <g
     inkscape:label="Ebene 1"
     inkscape:groupmode="layer"
     id="layer1">
    <path
       style="fill:#ffffff;stroke-width:0.264583"
       d="m 6.0191572,129.22426 c 22.4539268,-0.28259 44.8832508,-0.0114 67.2603168,2.02287 1.520217,0.1382 3.028344,0.40417 4.55145,0.50571 3.511806,0.23412 9.010723,-1.05752 12.137203,0.50572 0.42677,0.21339 5.00775,-2.02287 6.0686,-2.02287"
       id="path1" />
    <path
       style="fill:#ffffff;stroke-width:0.264583"
       d="m 51.533659,118.0985 c -8.824873,1.87384 -2.509735,9.93947 3.034299,8.09146 0.993662,-0.33122 2.97456,-5.62262 2.022867,-6.57431 -0.1192,-0.1192 -0.354941,0.0754 -0.505717,0 -0.21323,-0.10662 -0.337145,-0.33715 -0.505716,-0.50572 -1.348579,-0.33715 -2.697157,-0.67429 -4.045733,-1.01143 z"
       id="path2" />
    <path
       style="fill:#ffffff;stroke-width:0.264583"
       d="M 2.0228667,154.7493 130.4749,155.25502"
       id="path3" />
    <path
       style="fill:#ffffff;stroke-width:0.264583"
       d="m -57.145983,165.87507 9.1029,-65.74317"
       id="path4" />
    <path
       style="fill:#ffffff;stroke-width:0.264583"
       id="path5"
       d="m 10.857168,111.66324 c 10.294662,-0.28977 20.591547,-0.0716 30.885293,0.13093 11.383119,0.24864 22.76611,0.50253 34.149456,0.74055 3.263403,0.0667 1.751454,0.0352 4.535855,0.094 0,0 -3.055958,-2.22423 -3.055958,-2.22423 v 0 c -2.690482,0.0126 -1.226998,0.008 -4.390464,0.0104 -11.243919,-0.0282 -22.487155,-0.18354 -33.728239,-0.43747 C 28.732703,109.73058 18.212952,109.477 7.6901312,109.36234 Z" />
    <path
       style="fill:#ffffff;stroke-width:0.264583"
       id="path6"
       d="m 15.971953,112.16687 c 8.744862,-0.16813 17.49218,-0.16746 26.238358,-0.18633 11.761382,-0.0711 23.522286,0.18368 35.271821,0.7002 7.055945,0.44232 14.131565,0.51628 21.187225,0.94614 1.849353,0.11679 3.688543,0.33764 5.528823,0.54615 -0.23931,-0.12448 0.49951,0.11931 0.39174,0.0441 -1.14653,-0.79982 -2.23191,-1.71141 -3.48125,-2.33862 -0.36992,-0.18572 -0.82758,-0.0211 -1.241353,-0.0323 -0.98803,-0.0268 -1.97634,-0.0453 -2.96405,-0.0818 -1.69633,-0.0627 -3.39192,-0.1438 -5.08788,-0.2157 -17.773826,-0.86746 -35.535178,-1.94352 -53.289468,-3.14087 -8.009906,-0.49887 -16.012316,-1.14243 -24.030373,-1.50318 -1.08163,-0.0432 -2.163757,-0.0781 -3.246157,-0.0949 -0.461217,-0.007 -0.894792,0.0407 -1.3348548,-0.0985 5.4479828,2.96526 1.9803058,2.23814 3.8144478,0.42866 3.651133,-1.88653 7.588477,-3.22488 11.420919,-4.6965 9.183349,-3.324299 18.652699,-6.160429 28.413342,-7.122559 1.863365,-0.18367 3.739732,-0.19459 5.609598,-0.29189 3.302582,0.22645 5.803834,0.16653 8.946136,1.19535 1.01164,0.33123 2.378501,0.45739 2.869224,1.40201 0.314095,0.60462 -1.535901,-0.25871 -2.033521,0.20668 -0.832316,0.77841 -0.765379,2.194719 -1.481794,3.080959 -1.303544,1.61254 -2.993004,2.87054 -4.489503,4.30581 -6.935419,5.46506 -14.548434,9.97724 -22.309272,14.15257 -3.090664,1.66278 -9.279795,4.84041 -12.79316,6.19791 -1.321247,0.51051 -2.716384,0.80407 -4.074578,1.2061 -0.513294,-0.33917 -2.034373,-0.65147 -1.539885,-1.01751 1.286409,-0.95227 3.351006,-0.30873 4.63047,-1.27031 1.917785,-1.4413 2.887607,-3.84215 4.516101,-5.60375 2.206731,-2.38711 4.54982,-4.65092 6.970059,-6.82126 6.424208,-5.76089 9.715471,-7.8936 16.638738,-12.936099 4.741945,-3.12826 8.904097,-6.07549 13.913242,-8.69418 1.509506,-0.78915 3.046299,-1.56393 4.674454,-2.0644 0.839351,-0.258 2.905432,0.65288 2.628152,-0.1803 -0.296704,-0.89154 -2.017726,-0.85515 -2.799062,-0.33325 -0.879075,0.58719 -0.756888,1.97417 -1.135332,2.96126 -2.179495,4.01081 -5.085324,7.5313 -7.933875,11.069239 0,0 2.98891,1.78549 2.98891,1.78549 v 0 c 2.831095,-3.5953 5.720599,-7.162889 8.096737,-11.086609 0.474731,-1.03063 1.791647,-2.01832 1.424196,-3.09188 -2.07329,-6.05742 -7.383086,-2.59201 -10.586381,-0.76874 -2.091756,1.19059 -4.122343,2.48766 -6.136108,3.80588 -2.526805,1.65406 -4.98824,3.40589 -7.482361,5.10883 -2.789674,2.04957 -5.630984,4.030639 -8.369025,6.148699 -5.432451,4.20235 -10.724829,8.61386 -15.587074,13.47529 -1.734072,1.73378 -4.172432,3.13243 -4.92211,5.46717 -1.499301,4.66931 0.580832,5.06235 2.911218,6.0183 1.298292,-0.45894 2.629845,-0.83286 3.894876,-1.37681 3.348921,-1.43998 9.593034,-4.77157 12.541646,-6.39143 7.778396,-4.27315 15.455704,-8.77468 22.609059,-14.04664 1.60941,-1.41572 3.420282,-2.63094 4.82823,-4.24715 0.824008,-0.9459 2.16227,-2.13266 1.766504,-3.323069 -0.609727,-1.83396 -2.652766,-2.839 -4.200144,-3.99693 -2.866726,-2.14523 -8.381127,-2.11738 -11.6893,-2.28584 -1.859782,0.11618 -3.72642,0.1512 -5.57935,0.34853 -9.811713,1.0449 -19.335144,3.86389 -28.630102,7.060439 -2.600214,0.93274 -4.615288,1.65244 -7.162718,2.57661 -0.888185,0.32222 -2.547027,0.90812 -3.518969,1.3303 -0.647869,0.28141 -0.690647,0.33709 -1.214395,0.68368 -2.0673498,2.24339 -0.03079,2.40514 2.725018,4.01961 1.485543,0.10206 2.987426,-0.0745 4.474244,0.0426 7.814686,0.20476 15.621124,0.6408 23.425944,1.07101 17.86002,1.0463 35.722226,2.0755 53.568137,3.34294 3.73143,0.25556 5.06874,0.35393 8.423903,0.56493 0.45188,0.0284 1.61406,0.45178 1.35598,0.0798 -1.56082,-2.24992 -1.84426,-2.26374 -3.30718,-2.38743 -1.784123,-0.16122 -3.569063,-0.31616 -5.359143,-0.39701 -6.97222,-0.29678 -13.954541,-0.36131 -20.923915,-0.74816 -11.71902,-0.44504 -23.446171,-0.64498 -35.17383,-0.61177 -8.917162,-0.0191 -17.835348,-0.0211 -26.751266,-0.18632 z" />
    <path
       style="fill:#ff0000;stroke-width:0.264583"
       d="m 10.064892,119.10993 83.948965,-0.50572"
       id="path8" />
    <path
       style="fill:#ff0000;stroke-width:0.264583"
       d="m 14.110625,108.48988 c 4.978318,0.55048 10.21562,-0.70799 15.171499,0 0.527714,0.0754 0.99133,0.41808 1.51715,0.50571 3.887901,0.64799 9.064585,0 13.148632,0 7.080036,0 14.160069,0 21.240102,0 1.374359,0 12.896805,-0.25182 13.148633,0 0.1192,0.1192 0,0.33715 0,0.50572"
       id="path9" />
    <path
       style="fill:#ff0000;stroke-width:0.264583"
       d="m 47.487923,97.869831 c -0.842859,0.50571 -3.0343,0.67429 -2.528583,1.51715 0.505716,0.842859 2.893636,-2.42979 2.528583,-1.51715 -0.801748,2.00437 -4.045733,2.898389 -4.045733,5.057159 0,0.76207 -0.362051,2.81592 0,3.54002 0.91123,1.82246 5.294855,2.11221 7.080035,1.51715 0.226164,-0.0754 0.279551,-0.43033 0.505717,-0.50572 0.319842,-0.10661 0.70988,0.15078 1.011433,0 0.426456,-0.21322 0.629997,-0.72535 1.011434,-1.01143 1.71682,-1.28762 3.453262,-2.92356 1.011433,-4.55145 -0.74816,-0.49877 -1.222235,-1.62255 -2.022867,-2.022869 -1.289259,-0.64462 -3.20372,-1.44526 -4.551452,-2.02286 z"
       id="path10" />
    <path
       style="fill:#ff0000;stroke-width:0.264583"
       d="m 50.016509,98.375541 c 1.011433,-1.34857 1.918988,-2.78171 3.0343,-4.04573 4.543575,-5.14939 4.95142,-4.66658 10.620049,-9.1029 7.263532,-5.6845 13.93064,-12.02058 20.734379,-18.2058 0.84548,-0.76862 1.72344,-1.21772 2.52859,-2.02287"
       id="path11" />
    <path
       style="fill:#ff0000;stroke-width:0.264583"
       d="m 88.956687,59.435361 c -1.49505,-0.157594 -3.72408,-0.137591 -4.55145,1.51715 -0.0754,0.15078 0.1192,0.38652 0,0.50572 -0.11919,0.1192 -0.38651,-0.1192 -0.50571,0 -0.26314,0.26314 0,1.59527 0,2.02286 0,0.47944 -0.21,1.60288 0,2.02287 0.21323,0.42646 0.58497,0.79821 1.01143,1.01143 0.97333,0.48667 7.82642,0.008 8.59719,-0.50571 1.39773,-0.93183 2.9198,-3.26329 2.02286,-5.05717 -0.21323,-0.42646 -0.7982,-0.58498 -1.01143,-1.01143 -0.34879,-0.697567 0.61245,-0.45235 -0.50572,-1.011437 -1.49834,-0.749173 -3.59492,0.08794 -5.05717,0.505717 z"
       id="path12" />
    <path
       style="fill:#ff0000;stroke-width:0.264583"
       d="m 92.496707,62.469661 c 6.0686,0 12.137203,0 18.205803,0 2.28538,0 6.49081,-0.43535 9.1029,0 1.91966,0.31994 3.57794,0.50572 5.56288,0.50572 1.20254,0 6.0809,0.75243 6.57432,0.50571 1.97354,-0.98677 5.58473,-1.01143 8.09147,-1.01143"
       id="path13" />
    <path
       style="fill:#ff0000;stroke-width:0.264583"
       d="m 84.960401,265.50125 25.285839,-7.08003"
       id="path14" />
    <path
       style="fill:#ff0000;stroke-width:0.264583"
       d="m 94.013857,59.941081 c 2.21357,0.60943 14.130033,-0.773597 15.677223,0 1.9046,0.9523 4.8096,0.50571 7.08003,0.50571 1.51715,0 3.0343,0 4.55145,0 0.33715,0 1.01143,0.33715 1.01143,0 0,-0.33714 -0.67428,0 -1.01143,0 -1.34858,0 -2.69715,0 -4.04573,0 -4.51788,0 -9.37297,0.0589 -13.65435,-1.01143 -0.95194,-0.237985 -2.08237,0.23798 -3.0343,0 -0.23128,-0.0578 -0.27956,-0.430329 -0.50572,-0.505717 -1.945533,-0.648509 -8.119373,1.011437 -6.068603,1.011437 1.55416,0 3.00266,-0.88237 4.55145,-1.011437 0.53123,-0.04427 0.98819,0.439597 1.517153,0.505717 0.83635,0.10454 1.68991,-0.0839 2.52858,0 4.09361,0.40936 8.07084,2.02029 12.1372,2.52858 1.24165,0.15521 5.56147,0.16811 6.57432,0.50572 0.22616,0.0754 0.29249,0.3991 0.50572,0.50572 0.62659,0.31329 1.83977,-0.13776 2.52858,0 2.69991,0.53998 5.31063,0.50571 8.09147,0.50571"
       id="path15" />
    <path
       style="fill:#ff0000;stroke-width:0.264583"
       id="path16"
       d="m 97.670107,61.879641 c 5.329183,-0.18481 10.663183,-0.18766 15.994953,-0.21249 5.87655,-0.0327 11.76122,0.15284 17.59073,0.94083 3.27677,0.44293 4.74644,0.77318 7.9495,1.39378 4.90582,0.94608 9.72684,2.26345 14.55705,3.52753 0,0 -2.9857,-2.2828 -2.9857,-2.2828 v 0 c -4.7252,-1.118 -9.42444,-2.3568 -14.20347,-3.23336 -3.17152,-0.58608 -4.65273,-0.90181 -7.89691,-1.32325 -5.84552,-0.75936 -11.73944,-0.91473 -17.62782,-0.92381 -5.5268,-0.0254 -11.055423,-0.0333 -16.579873,-0.21249 z" />
    <path
       style="fill:#ff0000;stroke-width:0.264583"
       id="path17"
       d="m 51.059882,100.56838 c 1.166945,-1.791519 2.636751,-3.383729 4.108831,-4.928739 2.084234,-2.2329 4.304721,-4.3323 6.577637,-6.37081 1.847096,-1.64034 3.747,-3.22001 5.71046,-4.71861 1.586979,-1.26476 3.299984,-2.35091 4.973606,-3.49365 1.674934,-1.1701 3.332239,-2.36565 4.975656,-3.5797 1.522793,-1.16623 3.090788,-2.26327 4.696603,-3.31107 0.92507,-0.58204 1.800842,-1.22569 2.612982,-1.95617 0.56789,-0.51487 1.05733,-1.10432 1.54257,-1.69548 0.48282,-0.72054 0.97564,-1.42642 1.51249,-2.10725 0.44803,-0.50368 0.9283,-0.97568 1.46568,-1.38411 0.26511,-0.17748 0.52188,-0.36683 0.78238,-0.55091 0,0 -3.33315,-2.11566 -3.33315,-2.11566 v 0 c -0.25755,0.19177 -0.51882,0.37836 -0.77469,0.57238 -0.55106,0.44158 -1.07748,0.91348 -1.52133,1.46512 -0.52019,0.68682 -0.99016,1.40657 -1.506531,2.09607 -0.475361,0.57228 -0.942043,1.15667 -1.499055,1.65324 -0.793424,0.70952 -1.638649,1.35483 -2.524797,1.94523 -1.589087,1.07431 -3.142228,2.19492 -4.677079,3.34555 -1.642991,1.20605 -3.288038,2.41056 -4.96389,3.57054 -1.682467,1.14304 -3.402005,2.23258 -4.988282,3.51106 -1.946667,1.51791 -3.806981,3.14008 -5.633715,4.80029 -2.273813,2.05551 -4.537244,4.13005 -6.631368,6.37101 -1.50417,1.57504 -2.974962,3.1911 -4.329856,4.89665 z" />
    <path
       style="fill:#ff0000;stroke-width:0.264583"
       id="path18"
       d="m 90.642717,57.260375 c -1.26386,0.178689 -2.54474,0.177853 -3.80911,0.341598 -1.2277,0.161446 -2.45632,0.430509 -3.634819,0.813544 -0.575702,0.174225 -1.03995,0.397282 -1.234496,0.987884 -0.06925,0.25886 -0.06962,0.52592 -0.06983,0.79155 0,0 3.550165,1.79519 3.550165,1.79519 v 0 c -0.0146,-0.22945 -0.0259,-0.46084 0.004,-0.68965 0.0896,-0.44721 0.61859,-0.53323 0.98278,-0.68631 1.16386,-0.3663 2.3631,-0.64095 3.57845,-0.76175 1.26978,-0.13694 2.54765,-0.22242 3.82336,-0.27436 z" />
    <path
       style="fill:#ff0000;stroke-width:0.264583"
       id="path19"
       d="m 17.662584,108.15136 c 2.807944,-0.0778 5.617607,-0.0778 8.426448,-0.0859 4.324085,-0.0119 8.648186,-0.0179 12.972288,-0.0162 3.858585,0.0287 7.718972,-0.0347 11.57647,0.0727 3.087621,0.0418 6.151393,0.44648 9.213022,0.80777 2.470697,0.26306 4.940337,0.53459 7.408751,0.81827 2.219457,0.18954 4.426823,0.49118 6.642492,0.71659 1.885246,0.19221 3.779927,0.25132 5.673595,0.27845 1.657384,0.015 3.314843,0.009 4.972257,0.0155 0.83139,0.004 0.43524,0.001 1.18846,0.009 0,0 -3.159236,-2.29455 -3.159236,-2.29455 v 0 c -0.731488,0.0102 -0.345353,0.006 -1.15841,0.0126 -1.6496,0.0108 -3.299351,0.0128 -4.948896,-0.006 -1.875075,-0.0314 -3.751032,-0.0878 -5.617884,-0.27877 -2.216153,-0.23095 -4.425688,-0.5226 -6.64513,-0.72326 -2.451031,-0.2724 -4.90516,-0.5144 -7.356811,-0.78139 -3.0564,-0.35364 -6.11746,-0.72277 -9.19857,-0.75423 -3.832482,-0.0735 -7.666188,0.0176 -11.49918,-0.006 -4.338961,0.002 -8.677921,-0.004 -13.016865,-0.0162 -2.887655,-0.008 -5.776013,-0.01 -8.662842,-0.0859 z" />
    <path
       style="fill:#ff0000;stroke-width:0.264583"
       id="path20"
       d="m 198.11268,14.803428 c 0.22509,4.664747 0.2262,9.337302 0.25188,14.006388 -0.013,6.711555 0.0487,13.423155 0.20863,20.132855 0.15542,5.0777 0.26604,10.15633 0.31553,15.23614 0.0193,3.90821 0.011,7.81649 0.013,11.72473 0.004,2.58072 -0.021,5.16175 -0.099,7.74136 -0.0987,2.1342 0.55855,1.56353 3.65507,3.10077 0.14298,0.071 0.31746,-0.0343 0.47664,-0.0462 0.24786,-0.0186 0.49619,-0.0301 0.74428,-0.0452 3.57027,-0.18642 7.1464,-0.21215 10.72062,-0.24323 4.81347,-0.0166 9.62745,-0.0765 14.44045,0.008 4.32577,0.0125 8.6297,0.42346 12.91058,1.01109 3.32782,0.51262 6.65191,1.05008 9.99274,1.472 3.19416,0.3239 6.39916,0.53057 9.60687,0.65858 3.26972,0.10447 6.54116,0.13251 9.81225,0.15617 2.06476,0.0201 4.12959,0.0248 6.1944,0.0293 1.40483,0.006 2.80969,5.3e-4 4.21447,0.0146 0.37467,0.002 0.7493,0.008 1.12389,0.0139 0,0 -3.19563,-2.32173 -3.19563,-2.32173 v 0 c -0.36174,0.007 -0.72348,0.0123 -1.08527,0.0142 -1.38941,0.0151 -2.77892,0.0104 -4.16835,0.0192 -2.03687,0.008 -4.07369,0.0193 -6.11054,0.0296 -3.25429,7.9e-4 -6.50954,-0.01 -9.76181,-0.13739 -3.21001,-0.14621 -6.41811,-0.36099 -9.61366,-0.70233 -3.31668,-0.42627 -6.62109,-0.9382 -9.92892,-1.42728 -4.26931,-0.55689 -8.55987,-0.92987 -12.8696,-0.9284 -4.82163,-0.0699 -9.64416,-0.0191 -14.46616,-0.0162 -3.64924,0.0179 -7.29863,0.0337 -10.94753,0.0895 -0.25938,-4e-5 -0.51906,0.0123 -0.77814,-1.2e-4 -0.15093,-0.007 -0.57331,-0.14543 -0.44946,-0.0589 1.013,0.70794 2.10155,1.30113 3.154,1.94897 0.0472,0.0291 -0.11309,-0.0432 -0.13829,-0.0926 -0.0857,-0.16805 -0.0745,-0.65753 -0.0787,-0.78557 -0.0735,-2.61244 -0.0971,-5.22611 -0.0929,-7.83952 7e-5,-3.921 -0.0115,-7.84203 -0.0774,-11.76258 -0.0801,-5.10385 -0.21934,-10.20612 -0.44081,-15.30596 -0.22584,-6.71413 -0.31486,-13.43273 -0.26527,-20.150609 0.0254,-4.583472 0.023,-9.17081 0.25188,-13.74971 z" />
    <path
       style="fill:#ff0000;stroke-width:0.264583"
       id="path21"
       d="m 273.37953,84.080421 c 0.67746,0.39852 1.33786,0.82477 2.00541,1.23956 0.62055,0.38733 1.20113,0.83125 1.77689,1.28072 1.20144,0.6885 2.40286,1.37701 3.60428,2.06551 0.0783,0.0387 0.15875,0.0733 0.23487,0.11605 0.65231,0.3664 -0.18041,-0.0566 0.5242,0.29154 0.0948,0.0561 0.37978,0.2232 0.28429,0.16832 -1.03711,-0.59602 -2.0728,-1.19452 -3.1092,-1.79178 0.0681,0.0104 0.48689,0.40252 0.53994,0.20417 0.004,-0.0171 -0.0361,0.003 -0.0521,0.011 -0.0865,0.0419 -0.16923,0.0913 -0.25384,0.13699 -1.44245,0.79652 -2.85051,1.65679 -4.21894,2.57562 -0.8129,0.4659 -1.56244,1.0499 -2.3827,1.50149 -0.25128,0.19368 -0.13481,0.0982 -0.35103,0.2843 0,0 3.36564,2.09796 3.36564,2.09796 v 0 c 0.18565,-0.1587 0.085,-0.0791 0.30413,-0.2361 0.77809,-0.50897 1.51898,-1.07604 2.30286,-1.57722 1.36726,-0.93476 2.78804,-1.79189 4.28506,-2.50425 0.63116,-0.39681 0.91265,-0.68875 0.14229,-1.07694 -1.21184,-0.70075 -2.42237,-1.40386 -3.63559,-2.10226 -0.27254,-0.1569 -0.55213,-0.30736 -0.83222,-0.45051 -0.0788,-0.0403 -0.31387,-0.16312 -0.2377,-0.11811 1.05217,0.62178 2.11085,1.23248 3.16624,1.84872 -0.63891,-0.37765 -1.1625,-0.94154 -1.81266,-1.30942 -0.64831,-0.41682 -1.30323,-0.8227 -1.95693,-1.23058 z" />
    <path
       style="fill:#ff0000;stroke-width:0.264583"
       id="path22"
       d="m 198.35353,21.011013 c -0.0414,-1.095684 0.0613,-2.196076 0.29405,-3.266651 0.0399,-0.497922 0.25137,-0.882269 0.49576,-1.291222 0.29561,-0.457862 0.5735,-0.926693 0.87136,-1.383475 0.34481,-0.410813 0.65602,-1.150498 1.2493,-1.247211 0.37734,1.357225 0.0505,0.07191 -3.30804,-1.778625 -0.0372,-0.0205 0.0603,0.06229 0.0779,0.100973 0.0746,0.16369 0.0669,0.38926 0.0784,0.563052 0.0187,0.58643 0.0112,1.173374 0.009,1.760008 -0.0655,1.137367 0.39155,2.17007 0.81527,3.196305 0.27487,0.698486 0.54752,1.394536 0.92025,2.047316 0.19472,0.391856 0.49834,0.707697 0.78225,1.034219 0.0413,0.05148 0.0826,0.102952 0.12386,0.154427 0,0 3.626,1.595673 3.626,1.595673 v 0 c -0.0346,-0.0678 -0.0693,-0.135609 -0.10389,-0.203414 -0.26794,-0.32765 -0.5675,-0.61314 -0.81535,-0.953609 -0.3274,-0.685519 -0.79788,-1.30479 -1.00847,-2.050775 -0.40911,-0.971063 -0.9028,-1.944235 -0.82859,-3.028823 0.004,-0.589018 0.011,-1.178012 0.0133,-1.767038 -0.015,-1.620536 -0.47678,-4.345588 -3.68421,-2.879349 -0.58022,0.346805 -0.94228,0.939384 -1.33203,1.473274 -0.31163,0.457057 -0.61888,0.916977 -0.92747,1.376079 -0.26281,0.453118 -0.46152,0.89902 -0.5062,1.434889 -0.2107,1.094091 -0.3066,2.205855 -0.36853,3.31739 z" />
    <text
       xml:space="preserve"
       style="font-size:7.05556px;font-family:Arial;-inkscape-font-specification:Arial;text-align:end;writing-mode:lr-tb;direction:ltr;text-anchor:end;fill:#ff0000;stroke-width:0.264583"
       x="276.34265"
       y="97.802971"
       id="text22"><tspan
         sodipodi:role="line"
         id="tspan22"
         style="stroke-width:0.264583"
         x="276.34265"
         y="97.802971">q1</tspan></text>
    <text
       xml:space="preserve"
       style="font-size:7.05556px;font-family:Arial;-inkscape-font-specification:Arial;text-align:end;writing-mode:lr-tb;direction:ltr;text-anchor:end;fill:#ff0000;stroke-width:0.264583"
       x="42.009327"
       y="112.90008"
       id="text23"><tspan
         sodipodi:role="line"
         id="tspan23"
         style="stroke-width:0.264583"
         x="42.009327"
         y="112.90008">q1</tspan></text>
    <text
       xml:space="preserve"
       style="font-size:7.05556px;font-family:Arial;-inkscape-font-specification:Arial;text-align:end;writing-mode:lr-tb;direction:ltr;text-anchor:end;fill:#ff0000;stroke-width:0.264583"
       x="97.802971"
       y="70.890747"
       id="text24"><tspan
         sodipodi:role="line"
         id="tspan24"
         style="stroke-width:0.264583"
         x="97.802971"
         y="70.890747">q2</tspan></text>
    <text
       xml:space="preserve"
       style="font-size:7.05556px;font-family:Arial;-inkscape-font-specification:Arial;text-align:end;writing-mode:lr-tb;direction:ltr;text-anchor:end;fill:#ff0000;stroke-width:0.264583"
       x="213.65683"
       y="14.440708"
       id="text25"><tspan
         sodipodi:role="line"
         id="tspan25"
         style="stroke-width:0.264583"
         x="213.65683"
         y="14.440708">q2</tspan></text>
    <path
       style="fill:#ff0000;stroke-width:0.264583"
       id="path25"
       d="m 243.64484,91.573561 c -0.0407,-0.58083 -0.0133,-1.14293 0.1268,-1.70645 0.0814,-0.27246 0.16216,-0.54118 0.19182,-0.8246 0.10288,-0.2365 0.20355,-0.47078 0.26764,-0.72361 0,0 -3.50044,-1.88334 -3.50044,-1.88334 v 0 c -0.0549,0.27767 -0.17275,0.51949 -0.29573,0.77303 -0.0139,0.26598 -0.0732,0.52047 -0.14563,0.77674 -0.14536,0.59371 -0.19925,1.17899 -0.17046,1.79164 z" />
    <circle
       id="path26"
       style="fill:#ff0000;stroke:#000000;stroke-width:0.264583"
       cx="199.21611"
       cy="85.659645"
       r="0.043715641" />
    <path
       style="fill:#ff0000;stroke-width:0.264583"
       id="path27"
       d="m 197.708,53.646021 c -0.80234,1.2e-4 -1.60891,0.0515 -2.40686,-0.0416 -0.58582,-0.0763 -0.30069,-0.0363 -0.85549,-0.11934 0,0 3.14474,2.35076 3.14474,2.35076 v 0 c 0.55444,0.0686 0.26759,0.0352 0.86062,0.0994 0.8189,0.0492 1.63862,0.015 2.45853,0.0369 z" />
    <path
       style="fill:#ff0000;stroke-width:0.264583"
       id="path28"
       d="m 239.0253,53.777281 c -0.78802,0.34686 -1.39585,0.87345 -1.81873,1.61852 -0.78485,2.16181 2.01079,2.46106 3.72053,3.42857 0.7304,0.10154 1.47299,0.14633 2.20497,0.0504 0.56006,-0.0812 1.17378,-0.16712 1.58004,-0.59567 0.24908,-0.30829 0.25165,-0.71 0.26434,-1.08753 -0.018,-0.13664 0.035,-0.29145 0.002,-0.42671 -0.019,-0.0788 -0.10413,-0.22618 -0.17948,-0.27151 -1.16959,-0.70376 -2.35394,-1.38268 -3.53092,-2.07402 -0.36132,-0.24281 -0.75697,-0.36524 -1.18558,-0.41191 -0.46265,-0.0333 -0.92668,-0.0364 -1.39028,-0.042 -0.42421,-0.0129 -0.50352,0.45004 -0.42031,0.7779 1.21156,1.29412 2.97894,2.00731 4.63314,2.62228 0.50764,0.10747 0.96484,0.35099 1.46809,0.47387 0.42244,0.12343 0.70504,-0.0978 0.85074,-0.47566 0.0124,-0.54788 -0.0833,-1.10985 -0.2049,-1.64537 -0.54695,-1.50839 -1.86177,-1.37616 -3.70889,-2.43459 -0.19564,-0.11211 -0.0458,-0.05 -0.29569,-0.12772 -0.38262,-0.13415 -0.7969,-0.14364 -1.19841,-0.16583 -0.37373,-0.0114 -0.74758,-0.005 -1.12141,-0.007 -0.0433,-2.6e-4 -0.0866,-7.9e-4 -0.12989,-10e-4 0,0 3.21821,2.3365 3.21821,2.3365 v 0 c 0.0415,-5.3e-4 0.0829,-10e-4 0.12441,-0.002 0.36682,-0.003 0.73423,-5.3e-4 1.10015,0.0277 0.38681,0.0348 0.77025,0.0944 1.12292,0.26715 1.28129,0.66855 1.8538,1.14796 -3.0089,-1.77602 -0.0363,-0.0219 0.0879,-0.0106 0.12704,0.006 0.0436,0.0182 0.1607,0.18038 0.17864,0.20348 0.23831,0.42293 0.15499,0.95128 0.31183,1.40544 -0.0219,0.18333 -0.39783,-0.0156 -0.49989,-0.0271 -0.48068,-0.16576 -0.95869,-0.33777 -1.44026,-0.50016 -0.64037,-0.27468 0.1432,0.0581 -0.48539,-0.19857 -0.0716,-0.0292 -0.27962,-0.13115 -0.2131,-0.0917 5.37739,3.18888 4.01842,2.29317 2.8312,1.66871 -0.0588,-0.009 -0.10617,-0.0659 -0.16557,-0.066 -0.21619,-1.8e-4 0.11257,0.14248 0.1352,0.065 0.44824,10e-4 0.9004,0.007 1.34162,0.0944 0.40039,0.11082 0.75975,0.30314 1.11375,0.51866 -1.08017,-0.63716 -2.15934,-1.27604 -3.24053,-1.91148 -0.0405,-0.0238 0.0763,0.0554 0.11829,0.0765 0.0608,0.0305 0.15838,-0.006 0.19796,0.0491 0.05,0.0698 -0.0483,0.19168 0.0102,0.25741 0.002,0.26286 0.0435,0.58614 -0.1112,0.81136 -0.39293,0.30591 -0.92369,0.33022 -1.39672,0.39908 -0.70598,0.033 -1.43912,0.0216 -2.1133,-0.21143 1.04311,0.61965 2.09216,1.22938 3.12932,1.85894 0.11266,0.0684 -0.26535,-0.0948 -0.33841,-0.20449 -0.13747,-0.2064 -0.0479,-0.46559 0.004,-0.68004 0.37068,-0.67489 0.94458,-1.12221 1.68113,-1.3607 z" />
    <circle
       id="path29"
       style="fill:#ff0000;stroke:#000000;stroke-width:0.264583"
       cx="240.89726"
       cy="62.357601"
       r="0.043715641" />
    <circle
       id="path30"
       style="fill:#ff0000;stroke:#000000;stroke-width:0.264583"
       cx="240.89726"
       cy="68.26516"
       r="0.043715641" />
    <circle
       id="path31"
       style="fill:#ff0000;stroke:#000000;stroke-width:0.264583"
       cx="240.89726"
       cy="72.859932"
       r="0.043715641" />
    <circle
       id="path32"
       style="fill:#ff0000;stroke:#000000;stroke-width:0.264583"
       cx="240.89726"
       cy="78.767479"
       r="0.043715641" />
    <circle
       id="path33"
       style="fill:#ff0000;stroke:#000000;stroke-width:0.264583"
       cx="206.76466"
       cy="54.152653"
       r="0.043715641" />
    <circle
       id="path34"
       style="fill:#ff0000;stroke:#000000;stroke-width:0.264583"
       cx="216.9388"
       cy="54.152653"
       r="0.043715641" />
    <circle
       id="path35"
       style="fill:#ff0000;stroke:#000000;stroke-width:0.264583"
       cx="223.17456"
       cy="55.137241"
       r="0.043715641" />
    <circle
       id="path36"
       style="fill:#0000ff;stroke:#000000;stroke-width:0.264583"
       cx="231.05132"
       cy="55.137241"
       r="0.043715641" />
    <path
       style="fill:#0000ff;stroke-width:0.264583"
       id="path37"
       d="m 44.51607,58.453749 c 0.09859,2.314992 0.09268,4.632802 0.09423,6.949402 -0.0016,2.76797 -0.006,5.53594 -0.0082,8.30391 0.04344,2.10187 0.16083,4.2012 0.230934,6.30227 0.0559,1.87173 0.06247,3.74444 0.06803,5.61686 -0.0026,1.54681 -0.01376,3.09362 -0.02727,4.64037 -0.0073,1.01988 -0.01032,2.03976 -0.01585,3.05964 -0.0021,0.70534 -0.0085,1.41065 -0.01299,2.11596 -2.64e-4,0.41886 -7.94e-4,0.83771 -0.0059,1.25653 0,0 3.530118,1.79869 3.530118,1.79869 v 0 c -0.0052,-0.42084 -0.0057,-0.84171 -0.0059,-1.26258 -0.0045,-0.70969 -0.01095,-1.41936 -0.01286,-2.12908 -0.0053,-1.02486 -0.0078,-2.04972 -0.01389,-3.07459 -0.0117,-1.55628 -0.02021,-3.1126 -0.02657,-4.66892 -0.0021,-1.8745 -0.0016,-3.74936 -0.05366,-5.62329 -0.07301,-2.11032 -0.233516,-4.21582 -0.306504,-6.32615 -0.0024,-2.77077 -0.0067,-5.54153 -0.0082,-8.31229 0.0016,-2.28457 -0.0058,-4.57047 0.09423,-6.85337 z" />
    <path
       style="fill:#0000ff;stroke-width:0.264583"
       id="path38"
       d="m 96.088637,54.499572 c 1.36745,-2.000567 3.09537,-3.712207 4.845683,-5.37347 2.36378,-2.147356 4.88064,-4.117459 7.37361,-6.110751 1.71032,-1.319673 3.40922,-2.653858 5.11424,-3.980645 1.32631,-1.129311 2.74192,-2.14216 4.14041,-3.178265 0.95636,-0.790496 2.0462,-1.395651 3.01681,-2.164366 0.5117,-0.434449 0.9822,-0.943287 1.59117,-1.24406 0.1772,-0.04521 0.30441,-0.172861 0.45834,-0.263578 0,0 -3.33607,-2.151737 -3.33607,-2.151737 v 0 c -0.14334,0.09288 -0.28781,0.183017 -0.44118,0.258955 -0.57972,0.375246 -1.06971,0.866079 -1.59235,1.313694 -0.95598,0.763875 -1.99657,1.416446 -2.94199,2.195531 -1.40274,1.036515 -2.81484,2.060291 -4.14899,3.185427 -1.68789,1.331923 -3.32996,2.721282 -5.0257,4.043518 -2.47248,2.029156 -4.99154,4.005461 -7.369643,6.146194 -1.79616,1.682404 -3.54614,3.418147 -5.08344,5.345187 z" />
    <path
       style="fill:#00ff00;stroke-width:0.264583"
       id="path39"
       d="m 51.645913,91.860891 c -0.04949,-1.60459 -0.0536,-3.21024 -0.0646,-4.81545 0.0079,-2.23825 -0.05108,-4.47862 0.03966,-6.71551 0.08088,-1.44114 0.208749,-2.87902 0.294024,-4.31985 0.03256,-0.94342 0.197689,-1.87455 0.273338,-2.81512 0.0608,-1.05158 0.08823,-2.10517 0.0967,-3.15842 0.0026,-0.76015 0.0145,-1.52024 0.01664,-2.28038 -4.5e-5,-0.61192 -0.0019,-1.22384 -0.0027,-1.83575 -0.02159,-1.13918 -0.02694,-2.27852 -0.02912,-3.41787 0.0037,-0.93873 0.01289,-1.87753 0.02964,-2.81612 -0.01685,-0.418449 0.06666,-0.849518 -0.05082,-1.256773 -0.08479,-0.216575 -0.171947,-0.425731 -0.228719,-0.65156 -0.0176,-0.134459 -0.0108,-0.06932 -0.02109,-0.19534 0,0 -3.560538,-1.784082 -3.560538,-1.784082 v 0 c 0.0077,0.141192 0.0035,0.06759 0.01267,0.220816 0.01196,0.25673 0.06952,0.508119 0.198318,0.732041 0.03685,0.08025 0.105614,0.147116 0.12596,0.23304 0.06827,0.288282 -0.04654,0.620313 0.01011,0.911328 0.01661,0.948666 0.02595,1.89752 0.02961,2.84632 -0.0021,1.12953 -0.0074,2.25905 -0.02891,3.38841 -5.29e-4,0.61162 -0.0019,1.22324 -8e-5,1.83485 0.0043,0.7641 0.01902,1.52813 0.01413,2.29229 -0.0066,1.04514 -0.0037,2.09137 -0.07992,3.13446 -0.07799,0.94481 -0.24779,1.88018 -0.280543,2.82731 -0.04548,1.45655 -0.132442,2.91104 -0.210008,4.36614 -0.08028,2.24297 -0.0033,4.48824 -0.03885,6.73224 -0.01093,1.58326 -0.01463,3.167 -0.0646,4.74962 z" />
    <path
       style="fill:#00ff00;stroke-width:0.264583"
       id="path40"
       d="m 46.482091,47.910545 c 0.02246,0.754338 0.01659,1.509472 0.0065,2.264016 -0.04972,0.544891 0.0446,1.046551 0.248869,1.549527 0.226627,0.526219 0.601144,0.918604 1.048859,1.261647 2.573158,1.672973 3.427322,2.382202 5.987761,2.580698 1.275165,0.145579 2.497313,-0.0263 3.694674,-0.467082 0.68168,-0.32757 1.428181,-0.846632 1.508784,-1.677244 0.01683,-0.173376 -0.01699,-0.347964 -0.02551,-0.521946 -0.469043,-1.59184 -1.747562,-2.778046 -2.882948,-3.926639 -1.752502,-1.585688 -3.812431,-2.994139 -6.096947,-3.657949 -0.663384,-0.156681 -1.347483,-0.208093 -2.0276,-0.21798 -0.605226,-0.01701 -0.910672,0.647581 -1.190686,1.086083 -0.498901,0.770937 -0.860041,1.613379 -1.100478,2.497283 -0.235337,0.682164 -0.04619,1.228783 0.280834,1.83729 1.165902,1.674186 3.183302,2.828581 5.102113,3.357959 0.655143,0.149821 1.300631,0.15815 1.952607,0.01418 0.415478,-0.160202 0.703339,-0.397491 0.890897,-0.797398 0.100835,-0.330767 0.08619,-0.683557 0.08231,-1.025854 -0.0032,-0.370207 -0.0109,-0.740314 -0.0096,-1.110562 0.01291,-0.37162 0.01114,-0.726114 -0.125315,-1.075391 -1.032454,-1.575906 -2.69217,-2.133824 -4.332295,-2.155489 -0.37718,0.0032 -0.75437,0.0057 -1.131562,0.0062 -0.05434,0.02923 -0.108683,0.05847 -0.163024,0.0877 0,0 3.286612,2.237237 3.286612,2.237237 v 0 c 0.03048,0.0024 0.06096,0.0048 0.09144,0.0071 0.372136,-0.0052 0.74468,-0.01209 1.116576,0.006 0.13394,0.009 0.228417,0.01061 0.360717,0.03902 0.197979,0.0425 0.348017,0.147886 0.263223,0.09805 -3.244884,-1.907339 -4.466587,-2.333397 -3.155034,-1.867117 0.342288,0.117145 0.246287,0.525018 0.253124,0.817028 0.0044,0.370602 0.0013,0.741254 0.0084,1.111814 0.0016,0.29192 0.0141,0.58542 -0.01587,0.876279 -0.105437,0.291454 -0.366226,0.411842 -0.657493,0.482941 -0.612354,0.09028 -1.233749,0.0204 -1.822444,-0.17122 -1.397064,-0.591473 -0.378164,-0.175855 2.740382,1.657707 0.106034,0.06234 -0.218223,-0.114688 -0.320011,-0.183747 -0.249515,-0.169289 -0.375558,-0.302176 -0.578152,-0.524942 -0.08553,-0.09405 -0.165473,-0.19304 -0.248208,-0.28956 -0.320381,-0.515196 -0.593754,-0.942665 -0.407122,-1.562033 0.195937,-0.853274 0.517863,-1.666931 1.023935,-2.387555 0.272118,-0.395611 0.469453,-0.804157 0.999754,-0.734034 0.651243,0.02658 1.305084,0.0803 1.928191,0.286925 1.301821,0.485134 3.136389,1.710729 -2.103639,-1.344668 -0.15581,-0.09085 0.319056,0.169296 0.470334,0.267509 0.471893,0.306369 0.642075,0.48183 1.079312,0.859571 1.111682,1.088943 2.322023,2.193869 2.928827,3.658462 0.02516,0.131567 0.07319,0.260771 0.07548,0.3947 0.01204,0.706001 -0.73283,1.114558 -1.274077,1.363824 -1.174996,0.390369 -2.371704,0.484378 -3.602744,0.325274 -0.509855,-0.05904 -1.015233,-0.115353 -1.506019,-0.275082 -1.27649,-0.415444 -3.35661,-2.111259 2.325264,1.453015 -0.465767,-0.262636 -0.856382,-0.585063 -1.125969,-1.055254 -0.23105,-0.450405 -0.384204,-0.886492 -0.333414,-1.402424 -0.01,-0.752345 -0.01625,-1.505297 0.0065,-2.257428 z" />
    <path
       style="fill:#00ff00;stroke-width:0.264583"
       id="path41"
       d="m 52.030938,48.817082 c 0.114752,0.03314 0.228915,0.0684 0.344257,0.09942 0.534564,0.143785 0.307888,0.04943 0.813668,0.264022 0.115353,0.04894 0.451009,0.217517 0.342672,0.154554 -3.549224,-2.062684 -4.053263,-2.42996 -2.888951,-1.606777 0.391555,0.334354 0.41724,0.832606 0.526619,1.302813 0.124994,0.518364 0.179213,1.048906 0.215199,1.579655 0.04046,0.312619 -0.08585,0.573318 -0.257196,0.824357 -0.17526,0.214096 -0.404276,0.401392 -0.672981,0.488294 -0.659815,0.134369 -1.329161,0.01267 -1.986764,-0.07573 -1.48694,-0.184785 -4.481177,-2.292064 2.047221,1.490057 -0.240911,-0.152779 -0.18977,-0.495676 -0.189788,-0.745967 -0.01204,-0.37502 0.01556,-0.730197 0.158271,-1.079994 0.119838,-0.2842 0.293746,-0.586838 0.577165,-0.731269 0,0 -3.348797,-2.132372 -3.348797,-2.132372 v 0 c -0.296386,0.249769 -0.530664,0.566623 -0.677691,0.927166 -0.171061,0.388064 -0.271981,0.786249 -0.244795,1.212929 -0.0029,0.339543 -0.03706,0.69718 0.05215,1.025946 1.879597,1.130583 2.847782,2.191329 4.7738,2.378644 0.709658,0.07602 1.463937,0.195109 2.147065,-0.07546 0.302794,-0.169095 0.591079,-0.386527 0.789334,-0.674886 0.206838,-0.314147 0.40509,-0.666509 0.371213,-1.054915 -0.02745,-0.551563 -0.09329,-1.101082 -0.197488,-1.643522 -0.113321,-0.51166 -0.128981,-1.07292 -0.43076,-1.514182 -1.276945,-1.563394 -3.481782,-2.326447 -5.425652,-2.791047 z" />
    <path
       style="fill:#00ff00;stroke-width:0.264583"
       id="path42"
       d="m 49.779902,7.0901656 c 0.135075,3.2142194 0.126143,6.4326694 0.112409,9.6490604 0.01926,3.185314 -1.56e-4,6.362861 -0.293675,9.535986 -0.258053,2.824387 -0.755872,5.61722 -1.095208,8.431778 -0.213738,1.757029 -0.304009,3.524512 -0.341675,5.29295 -0.01537,0.717481 -0.02008,1.435113 -0.03171,2.152647 0,0 3.496974,1.78063 3.496974,1.78063 v 0 c -0.01535,-0.723611 -0.02164,-1.447387 -0.01998,-2.171168 0.01651,-1.770033 0.06605,-3.5408 0.241422,-5.303374 0.293293,-2.829439 0.788421,-5.631791 1.044379,-8.465516 0.310626,-3.19038 0.340484,-6.384084 0.268991,-9.588032 -0.01352,-3.178172 -0.02487,-6.358604 0.112408,-9.5345114 z" />
    <path
       style="fill:#00ff00;stroke-width:0.264583"
       id="path43"
       d="m 199.67154,81.353681 c -0.5911,0.18675 -1.10657,0.51395 -1.59588,0.88119 -0.34537,0.32155 -0.50559,0.75241 -0.58777,1.20561 -0.0443,0.34021 -0.0839,0.68714 0.0101,1.0209 0.99134,1.62588 3.09088,2.44396 4.94706,2.62934 0.77983,0.0112 1.57516,0.13523 2.34813,0.003 0.43456,-0.0676 0.77068,-0.16572 1.01896,-0.53891 0.15655,-0.41129 0.10393,-0.87293 0.0989,-1.3054 -0.013,-0.48188 -0.17069,-0.91496 -0.40653,-1.32744 -0.28718,-0.29616 -0.53967,-0.62697 -0.82508,-0.92382 -2.3701,-1.72772 -2.61875,-2.08192 -4.56408,-2.12341 -0.4952,-0.0599 -0.76951,0.26106 -1.00705,0.6556 -0.2455,0.35232 -0.45414,0.72904 -0.58677,1.1377 -0.0998,0.36168 -0.11042,0.70339 0.0427,1.04762 0.93863,1.40455 2.69663,2.25594 4.35784,2.44532 0.37686,0.0654 0.62247,0.004 0.96618,-0.13256 0.37084,-0.23844 0.69837,-0.481 0.98125,-0.82215 0.19663,-0.23931 0.3135,-0.53627 0.36968,-0.83882 0.0819,-0.42631 -0.20064,-0.71417 -0.4877,-0.98363 -1.40841,-1.04352 -2.98872,-2.28335 -4.79473,-2.4818 -0.29824,-0.0183 -0.6155,-0.11141 -0.86473,0.0745 -0.27942,0.26965 -0.49019,0.59776 -0.69319,0.92699 -0.17124,0.33537 -0.26634,0.69839 -0.26785,1.07384 0.0184,0.0677 0.0244,0.14011 0.0552,0.20315 0.0481,0.0985 0.23069,0.30657 0.3208,0.35993 2.08155,1.23249 2.5276,1.90804 4.20715,2.20663 0.5902,0.0806 1.18707,0.0889 1.78174,0.0979 0.57871,0.0751 0.67403,-0.37709 0.72341,-0.86762 0.0289,-0.61752 -0.003,-1.26619 -0.24783,-1.84159 -0.82913,-1.58139 -2.61118,-2.31359 -4.27762,-2.26738 -0.40723,0.0851 -0.20672,0.0417 -0.60158,0.13004 0,0 3.2376,2.25868 3.2376,2.25868 v 0 c 0.36833,-0.06 0.18265,-0.0416 0.55704,-0.0549 0.12485,0.0107 0.28311,0.0128 0.40666,0.0576 0.0405,0.0147 0.15018,0.0843 0.11295,0.0627 -1.09866,-0.63841 -2.20726,-1.25994 -3.29728,-1.913 -0.0397,-0.0238 0.0957,-2.6e-4 0.13733,0.0198 0.0418,0.0202 0.0675,0.0638 0.10131,0.0958 0.36117,0.45053 0.39625,1.06838 0.37157,1.62782 -0.0436,0.51618 0.0488,0.35322 -0.42163,0.36149 -0.57606,-0.008 -1.15735,-0.026 -1.72008,-0.16115 -0.18244,-0.0562 -0.7,-0.29945 -0.53612,-0.20151 5.49926,3.28646 3.84826,2.25622 2.66334,1.56183 -0.14942,-0.22625 0.0425,-0.59013 0.12463,-0.81899 0.15113,-0.25281 0.31626,-0.55622 0.57389,-0.70745 0.19931,0.11308 0.50579,-0.005 0.71756,0.0969 0.2203,0.0524 0.43029,0.10911 0.63845,0.20078 0.0772,0.034 0.3002,0.15319 0.22766,0.11023 -2.30751,-1.3668 -4.24456,-2.4581 -2.90067,-1.69992 0.11106,0.0894 0.23775,0.1603 0.33953,0.26015 0.0431,0.0423 0.0623,0.1057 0.10737,0.14584 0.0954,0.0849 0.21244,0.0484 0.18276,0.21402 -0.0105,0.23686 -0.0933,0.46621 -0.24388,0.6505 -0.23525,0.27789 -0.53785,0.48562 -0.86946,0.63572 -0.27792,0.0761 -0.56942,0.0189 -0.851,-0.0257 -0.16146,-0.0371 -0.18859,-0.0362 -0.3457,-0.10253 -0.0546,-0.023 -0.21058,-0.10851 -0.1596,-0.0783 7.09723,4.20671 3.8511,2.47639 2.95516,1.71059 -0.23773,-0.22047 -0.26775,-0.41808 -0.19399,-0.73421 0.098,-0.38405 0.29276,-0.7305 0.52244,-1.05212 0.20621,-0.32383 0.41995,-0.33828 0.7843,-0.30148 1.57522,0.0866 3.42636,1.64652 -2.31665,-1.70867 0.34644,0.23504 0.52503,0.6009 0.86557,0.84995 0.3117,0.29139 0.43845,0.68962 0.52774,1.09996 2.6e-4,0.36146 0.004,0.72352 -0.0166,1.08453 -0.15472,0.2408 -0.55599,0.20104 -0.79669,0.27163 -0.76014,0.046 -1.5265,0.003 -2.28286,-0.0784 -0.28935,-0.0494 -0.41861,-0.0586 -0.69347,-0.15403 -0.0908,-0.0315 -0.34714,-0.16389 -0.26471,-0.11443 5.32757,3.19646 3.98142,2.2475 2.7708,1.65548 -0.17314,-0.28284 -0.14671,-0.49734 -0.1139,-0.82957 0.0431,-0.36054 0.13533,-0.70607 0.42899,-0.94627 0.46175,-0.35752 0.97616,-0.62684 1.54023,-0.78945 z" />
    <path
       style="fill:#2b0000;stroke-width:0.264583"
       id="path44"
       d="m 57.009949,8.0530956 c 1.234583,-0.02667 2.469655,-0.02204 3.704471,-0.02238 1.265962,0.0036 2.531946,0.0019 3.797911,0.0058 1.172914,0.0036 2.345817,-0.0029 3.518728,-5.29e-4 1.114989,-0.0019 2.229953,0.0049 3.344942,0.0034 1.248489,0.0118 2.497844,-0.04661 3.743981,0.03944 1.28724,0.0988 2.570562,0.181089 3.848327,0.365091 0.877933,0.07609 1.732458,0.251741 2.59465,0.421082 0.777481,0.153416 1.546323,0.356518 2.323468,0.519668 1.20009,0.366715 2.42238,0.6565424 3.62742,1.0054774 1.38227,0.353767 2.75504,0.744149 4.11934,1.161931 1.52068,0.368586 3.02476,0.794425 4.53298,1.208789 1.35204,0.407445 2.72398,0.741463 4.079103,1.138378 1.39944,0.47549 2.80304,0.938516 4.17686,1.485212 1.39682,0.499049 2.74299,1.154858 4.05088,1.853073 2.20144,1.273021 -1.1247,-0.652346 -1.74026,-0.98664 -0.29381,-0.159557 0.56883,0.351526 0.85148,0.530101 0.93357,0.589809 1.85063,1.19833 2.75789,1.827689 1.99003,1.465993 3.86673,3.075633 5.82476,4.582946 1.48531,1.152988 3.01023,2.25349 4.50919,3.388367 1.08814,0.75215 2.03996,1.670569 2.98088,2.593981 1.29529,1.33727 2.47052,2.783869 3.66988,4.206031 1.85613,2.181701 3.61132,4.445939 5.35633,6.716593 1.78736,2.492097 3.67605,4.908492 5.48377,7.385333 1.57996,2.048862 3.06019,4.169532 4.41856,6.371264 0.95113,1.663653 1.79873,3.386866 2.58334,5.134772 0.38043,0.850446 0.75887,1.701246 1.16985,2.537496 0.14462,0.26358 0.19906,0.55737 0.35618,0.81384 0.0695,0.15118 0.0382,0.0776 0.0949,0.22029 0,0 3.60657,1.68078 3.60657,1.68078 v 0 c -0.0545,-0.1605 -0.0256,-0.0768 -0.0867,-0.25094 -0.0983,-0.28846 -0.31777,-0.52291 -0.36343,-0.84128 -0.46731,-0.8299 -0.86619,-1.69221 -1.267,-2.55557 -0.80679,-1.770023 -1.68321,-3.510188 -2.63111,-5.208839 -1.35786,-2.225236 -2.85013,-4.363014 -4.45285,-6.419257 -1.81343,-2.482041 -3.71682,-4.896409 -5.49944,-7.401367 -1.72462,-2.259272 -3.45388,-4.516334 -5.27416,-6.699991 -1.18202,-1.41152 -2.33203,-2.851277 -3.57969,-4.206256 -0.93897,-0.938448 -1.87803,-1.892898 -2.97646,-2.647442 -1.51862,-1.151014 -3.07508,-2.251432 -4.58315,-3.416551 -1.97157,-1.488998 -3.84533,-3.098996 -5.81246,-4.593836 -2.68165,-1.910567 -5.51633,-3.591446 -8.40276,-5.174591 -1.32934,-0.678471 -2.67575,-1.337437 -4.08744,-1.828628 -1.383143,-0.531011 -2.788953,-1.002231 -4.198383,-1.457897 -1.35641,-0.390903 -2.72677,-0.731414 -4.08019,-1.133154 -1.5043,-0.4204184 -3.0176,-0.8030824 -4.52437,-1.2144434 -1.37066,-0.41484 -2.75052,-0.79923 -4.13541,-1.163661 -1.224341,-0.333016 -2.444383,-0.68121 -3.669292,-1.010812 -0.779616,-0.183772 -1.557661,-0.378262 -2.345219,-0.524544 -0.854546,-0.170884 -1.714852,-0.280234 -2.580363,-0.381413 -1.277249,-0.167264 -2.564439,-0.218617 -3.847674,-0.325837 -1.259395,-0.05577 -2.520309,-0.02935 -3.780708,-0.03908 -1.111866,-0.0016 -2.223711,0.0053 -3.335578,0.0034 -1.173469,0.0021 -2.346931,-0.0042 -3.520405,-5.3e-4 -1.260597,0.004 -2.521212,0.0021 -3.781812,0.0058 -1.25535,-2.65e-4 -2.510932,0.0038 -3.766068,-0.02238 z" />
    <path
       style="fill:#2b0000;stroke-width:0.264583"
       id="path45"
       d="m 206.73968,82.198241 c 1.27899,-1.05664 2.64081,-2.00534 3.95519,-3.01639 0.92655,-0.67736 1.87519,-1.32653 2.77254,-2.04256 0.85644,-0.71681 1.73415,-1.40628 2.63773,-2.06223 0.84981,-0.55778 1.65224,-1.18188 2.46328,-1.79345 0.91527,-0.79756 1.88352,-1.5248 2.88331,-2.21225 0.94622,-0.64663 1.89194,-1.29318 2.8451,-1.92934 0.69788,-0.48559 1.4098,-0.95027 2.11998,-1.41773 0.66729,-0.37921 1.34317,-0.73138 1.96764,-1.17982 0.69743,-0.47272 1.3869,-0.948 2.10512,-1.38893 0.72421,-0.50297 1.51973,-0.89044 2.3242,-1.24579 0.69786,-0.30065 1.29854,-0.77582 1.97478,-1.11307 0.44647,-0.26801 0.89674,-0.55234 1.38361,-0.74193 0.41949,-0.24588 0.85302,-0.46247 1.269,-0.71459 0.42298,-0.2475 0.87301,-0.44862 1.27235,-0.73579 0.2696,-0.17604 0.52038,-0.37216 0.79662,-0.54007 0,0 -3.33718,-2.14513 -3.33718,-2.14513 v 0 c -0.26795,0.18059 -0.53061,0.36912 -0.79661,0.55235 -0.40595,0.25781 -0.83461,0.4729 -1.24847,0.71699 -0.41468,0.22736 -0.82709,0.45912 -1.24767,0.67548 -0.47851,0.22925 -0.94016,0.49578 -1.39122,0.77465 -0.64756,0.36864 -1.25503,0.8097 -1.94465,1.10337 -0.8081,0.38093 -1.61133,0.77661 -2.34684,1.28813 -0.72479,0.44449 -1.42154,0.92717 -2.12543,1.40364 -0.6316,0.42874 -1.31448,0.76651 -1.96195,1.17012 -0.7102,0.46565 -1.41266,0.94341 -2.10775,1.43124 -0.9452,0.64445 -1.87942,1.30454 -2.82644,1.94633 -1.00274,0.69551 -1.96925,1.43572 -2.90838,2.21476 -0.81269,0.60844 -1.61944,1.22516 -2.46533,1.78749 -0.89669,0.66846 -1.76275,1.37636 -2.63292,2.07879 -0.9078,0.69508 -1.8412,1.35614 -2.74083,2.06223 -1.31097,1.03913 -2.66176,2.02641 -4.02756,2.99207 z" />
    <path
       style="fill:#2b0000;stroke-width:0.264583"
       id="path46"
       d="m 119.37052,121.46652 c 0.31321,6.90082 0.30992,13.81196 0.32607,20.71846 -0.0277,8.68044 -0.0608,17.35886 0.21905,26.03563 0.22543,5.88667 0.73669,11.75801 1.37666,17.61272 0.2038,1.85924 0.45376,3.71352 0.63294,5.57544 0.0785,0.82806 0.0725,1.66107 0.0709,2.49194 0.006,0.97304 -0.008,1.94601 -0.009,2.91902 -0.027,0.62106 -0.11741,1.23693 -0.19097,1.85359 0,0 3.47298,1.81902 3.47298,1.81902 v 0 c 0.0672,-0.63161 0.1488,-1.26158 0.207,-1.89411 0.003,-0.97291 -0.005,-1.94584 0.009,-2.9187 0.003,-0.84251 0.0282,-1.68764 -0.0384,-2.52822 -0.2643,-1.91148 -0.66264,-3.80313 -0.91334,-5.71698 -0.82226,-5.88097 -1.37682,-11.79816 -1.67613,-17.72911 -0.38327,-8.69092 -0.37295,-17.38685 -0.3436,-26.08497 0.0159,-6.79567 0.008,-13.59648 0.32606,-20.38619 z" />
    <path
       style="fill:#2b0000;stroke-width:0.264583"
       id="path47"
       d="m 116.69946,130.10619 c 0.70945,-1.41396 1.5278,-2.77167 2.39471,-4.09394 0.74868,-1.00733 1.59501,-1.93668 2.38943,-2.90733 0.56319,-0.77293 1.24731,-1.42636 1.96361,-2.05212 0.055,-0.0529 0.52629,-0.45388 0.6124,-0.4087 0.0478,0.0251 0.1149,0.17208 0.0668,0.1476 -1.06436,-0.54143 -2.09725,-1.14261 -3.14588,-1.71391 1.50942,1.63079 2.65652,3.56122 3.80618,5.45228 0.76998,1.34125 1.61514,2.63729 2.37541,3.98403 0,0 3.5846,1.59376 3.5846,1.59376 v 0 c -0.82022,-1.35985 -1.70114,-2.68106 -2.50578,-4.05049 -1.14893,-1.86433 -2.28203,-3.74594 -3.6184,-5.48471 -2.74896,-1.64794 -2.93062,-3.10258 -4.52611,-1.59853 -0.71031,0.65276 -1.35494,1.36866 -1.94588,2.13144 -0.81205,0.97277 -1.66535,1.91625 -2.37886,2.96655 -0.84967,1.33902 -1.64888,2.70901 -2.49705,4.04905 z" />
    <path
       style="fill:#2b0000;stroke-width:0.264583"
       id="path48"
       d="m 127.42621,199.71022 c 0.4285,0.0133 0.85744,0.0163 1.28549,0.04 3.62301,0.20044 7.23982,0.56207 10.85682,0.84215 5.16979,0.40032 6.88,0.51103 12.17332,0.88388 12.5194,0.90635 25.06043,1.4272 37.60627,1.77475 7.34374,0.18896 14.68862,0.3056 22.03421,0.196 4.75078,-0.10293 9.50203,-0.16408 14.25382,-0.18656 3.02674,-0.007 6.05353,0.002 9.08022,0.0207 1.28579,0.0117 0.67024,0.006 1.84667,0.0183 0,0 -3.11447,-2.26299 -3.11447,-2.26299 v 0 c -1.14432,0.0118 -0.54492,0.006 -1.79817,0.0173 -2.98451,0.0198 -5.96906,0.036 -8.95341,0.0751 -4.7142,0.059 -9.42814,0.14395 -14.14099,0.27296 -7.22348,0.17042 -14.44888,0.14512 -21.67357,0.0492 -12.48463,-0.21694 -24.96812,-0.65291 -37.41749,-1.65531 -5.46296,-0.4357 -7.05868,-0.5386 -12.39676,-1.05535 -3.79766,-0.36763 -7.58416,-0.83755 -11.38061,-1.21417 -0.47539,-0.0472 -0.95225,-0.078 -1.42839,-0.11701 z" />
    <path
       style="fill:#2b0000;stroke-width:0.264583"
       id="path49"
       d="m 229.71831,196.01001 c 0.98963,1.23488 1.96346,2.48204 2.96604,3.70676 0.5469,0.59583 1.02784,1.25232 1.69717,1.71632 2.3208,1.27747 8.10211,4.78094 1.07441,0.52059 0.009,-0.0265 0.0536,-0.0719 0.0267,-0.0793 -0.0621,-0.0172 -0.9426,0.33737 -1.07877,0.38349 -0.83928,0.28429 -0.61548,0.20857 -1.49729,0.45518 -1.30376,0.3471 -2.53465,0.90233 -3.81166,1.32928 -0.33065,0.0608 -0.62928,0.20647 -0.92794,0.35232 0,0 3.30081,2.17809 3.30081,2.17809 v 0 c 0.28212,-0.13489 0.57106,-0.25121 0.87203,-0.33881 1.23922,-0.47154 2.45555,-1.01014 3.74302,-1.3431 0.56161,-0.15735 2.42376,-0.58071 2.82565,-0.98856 0.0678,-0.0688 0.10011,-0.16528 0.15017,-0.24792 -1.12491,-0.72776 -2.24553,-1.4622 -3.37473,-2.18328 -1.03442,-0.66055 -4.48601,-0.3074 2.85521,1.69324 0.16355,0.0944 -0.67897,-0.42013 -0.47824,-0.30373 -0.74999,-0.42194 -1.23555,-1.00055 -1.81742,-1.6318 -1.00757,-1.18608 -1.99001,-2.39341 -2.88866,-3.66509 z" />
    <path
       style="fill:#2b0000;stroke-width:0.264583"
       id="path50"
       d="m 152.49001,150.63648 c 0.14053,3.21192 0.15534,6.4278 0.17716,9.64221 0.009,4.05871 -0.0237,8.11741 -0.0725,12.1758 -0.0127,0.99087 -0.0335,1.98164 -0.0644,2.97211 -0.0142,0.4525 -0.0417,0.76296 0.1188,1.18274 1.26366,0.68506 2.4685,1.492 3.79099,2.05518 0.25795,0.10985 0.5582,-0.0536 0.83687,-0.0844 0.43783,-0.0485 0.87513,-0.10166 1.31257,-0.1536 2.30474,-0.27364 4.60985,-0.53677 6.91714,-0.78839 6.43483,-0.61482 12.8934,-0.94251 19.35259,-1.15974 3.92496,-0.1247 7.85184,-0.1355 11.77828,-0.11935 1.59061,0.001 3.18104,0.0226 4.77143,0.0464 0.19962,0.004 0.49024,0.0569 0.66077,-0.11386 0.55483,-0.55546 0.10959,-2.41245 0.0418,-2.89277 -0.11644,-0.82495 -0.24702,-1.64784 -0.37054,-2.47176 -0.83035,-5.776 -1.51805,-11.57169 -2.0856,-17.37916 -0.16348,-1.06089 -0.17902,-2.15325 -0.44305,-3.19907 -0.0639,-0.25308 -0.18727,-0.68391 -0.45094,-0.83225 -1.30777,-0.7358 -2.66909,-1.3721 -4.00363,-2.05815 -4.15108,0.15545 -8.30181,0.30339 -12.45534,0.38593 -3.85793,0.0191 -7.71979,0.13786 -11.5768,0.0128 -2.28697,-0.0506 -4.55032,-0.38532 -6.81496,-0.675 -1.29082,-0.12769 -2.57289,-0.29464 -3.85708,-0.47379 -1.19624,-0.12712 -2.40037,-0.13906 -3.60197,-0.15845 -0.81154,-0.009 -1.62308,-0.0215 -2.43468,-0.0246 -0.44555,-0.0146 -0.848,0.22894 -1.24757,0.39694 -0.41765,0.28818 -0.93905,0.37053 -1.36935,0.62123 0,0 3.31342,2.17637 3.31342,2.17637 v 0 c 0.45323,-0.19102 0.90416,-0.38599 1.34655,-0.60188 0.37259,-0.15752 0.74204,-0.30191 1.15484,-0.27017 0.79347,-0.006 1.58697,-0.018 2.38048,-0.006 1.19763,0.0182 2.39842,0.0467 3.58717,0.20626 1.26259,0.17161 2.52833,0.29383 3.79602,0.42202 2.24886,0.27313 4.49941,0.57493 6.76912,0.59392 3.80282,0.0557 7.6054,-0.10703 11.40763,-0.15524 2.58372,-0.0508 5.16739,-0.10693 7.75118,-0.15355 0.75436,-0.0136 2.95106,-0.0584 3.81761,-0.0305 0.37429,0.012 0.74674,0.0577 1.12011,0.0865 -0.90697,-0.58614 -1.82393,-1.15712 -2.72092,-1.75842 -0.1168,-0.0783 0.28011,0.0865 0.37777,0.18769 0.1134,0.11746 0.16651,0.28277 0.22397,0.43559 0.39137,1.04092 0.42765,2.18361 0.66773,3.25786 0.80373,5.79544 1.58503,11.59476 2.16003,17.41834 0.0784,0.79787 0.16731,1.59477 0.23508,2.39361 0.0431,0.50796 0.0792,1.01678 0.0974,1.52624 0.008,0.22023 0.003,0.44154 -0.0192,0.66083 -0.005,0.0476 -0.0181,0.10633 -0.0593,0.1308 -0.0827,0.0492 -0.53686,0.0388 -0.56541,0.0392 -1.55259,0.0145 -3.10519,0.0282 -4.65781,0.04 -3.8448,0.055 -7.68876,0.16606 -11.5311,0.31295 -6.46993,0.27745 -12.93828,0.63243 -19.39315,1.15712 -2.37441,0.21796 -4.74929,0.45781 -7.12744,0.63295 -0.45773,0.0337 -0.91561,0.0723 -1.37448,0.0816 -0.2805,0.006 -1.05297,-0.22015 -0.84087,-0.0365 0.88342,0.76498 1.97527,1.24935 2.9629,1.87402 -0.0744,-0.0411 -0.17812,-0.0513 -0.22326,-0.12335 -0.0827,-0.13204 -0.0786,-0.79994 -0.0804,-0.8592 -0.0307,-1.01237 -0.0517,-2.02502 -0.0644,-3.03778 -0.0485,-4.083 -0.0814,-8.1663 -0.0724,-12.24963 0.0216,-3.1542 0.0344,-6.31007 0.17715,-9.46167 z" />
    <path
       style="fill:#2b0000;stroke-width:0.264583"
       id="path51"
       d="m 156.96479,159.45771 c 3.11964,-1.51174 6.19764,-3.10628 9.34237,-4.566 0,0 -3.06896,-2.02726 -3.06896,-2.02726 v 0 c -3.1374,1.54067 -6.23659,3.18931 -9.5205,4.40294 z" />
    <path
       style="fill:#2b0000;stroke-width:0.264583"
       id="path52"
       d="m 161.70432,167.0999 c 2.21576,-1.17706 4.49685,-2.22104 6.8082,-3.19434 3.00125,-1.21946 5.9644,-2.52094 8.90598,-3.87696 2.45894,-1.10994 4.83833,-2.38399 7.25934,-3.57208 0.72161,-0.27187 1.34525,-0.75531 2.06851,-1.01807 0,0 -3.3019,-2.19939 -3.3019,-2.19939 v 0 c -0.67727,0.33696 -1.29275,0.79019 -1.98185,1.10736 -2.34431,1.26536 -4.67319,2.56765 -7.11031,3.64981 -2.95269,1.34565 -5.94135,2.60148 -8.9396,3.84193 -2.33418,0.9978 -4.62286,2.10352 -6.98117,3.04118 z" />
    <path
       style="fill:#2b0000;stroke-width:0.264583"
       id="path53"
       d="m 171.65874,172.6337 c 3.4691,-1.48775 6.88481,-3.09738 10.31885,-4.66376 5.50959,-2.49006 11.11767,-4.75059 16.75181,-6.94062 2.57049,-1.00255 1.35356,-0.53027 3.65031,-1.41809 0,0 -3.06717,-2.05148 -3.06717,-2.05148 v 0 c -2.20565,0.95287 -1.03154,0.45176 -3.52408,1.49919 -5.58432,2.2945 -11.16857,4.59045 -16.71118,6.98437 -3.5225,1.53718 -7.02625,3.15761 -10.67275,4.38244 z" />
    <path
       style="fill:#2b0000;stroke-width:0.264583"
       id="path54"
       d="m 190.22191,172.48233 c 0.96902,0.008 1.92644,-0.0172 2.88909,-0.12538 0.99595,-0.12212 1.8978,-0.54865 2.82056,-0.90639 0.4291,-0.14277 0.85131,-0.33651 1.21717,-0.60253 0.0561,-0.0324 0.11228,-0.0647 0.16842,-0.097 0,0 -3.32683,-2.15418 -3.32683,-2.15418 v 0 c -0.0597,0.0366 -0.1193,0.0732 -0.17895,0.10975 -0.37187,0.20938 -0.74001,0.42048 -1.14703,0.55717 -0.88234,0.37266 -1.76613,0.75163 -2.73486,0.83101 -0.96803,0.0897 -1.93753,0.0921 -2.90911,0.0615 z" />
    <path
       style="fill:#2b0000;stroke-width:0.264583"
       id="path55"
       d="m 136.78015,129.33116 c 0.94198,1.60998 3.54534,2.77427 4.91567,3.31912 0.4783,0.0676 0.70726,-0.22567 0.83127,-0.64761 0.0529,-0.23812 0.0607,-0.48552 0.0539,-0.7288 0.0132,-0.28555 -0.0292,-0.5412 -0.24318,-0.74328 -0.97824,-1.07155 -2.99844,-1.80452 -3.80806,-2.29203 -1.06912,-0.64378 4.28974,2.54928 3.24834,1.86157 -1.79649,-1.18635 -2.41046,-1.49021 -3.71742,-2.14578 -0.45841,-0.1192 -0.48157,-0.22093 -0.89971,0.0199 -0.258,0.25601 -0.38173,0.52821 -0.30322,0.88957 0.0903,0.21272 0.14535,0.4355 0.17712,0.66352 0.10208,1.77117 0.9945,1.11081 3.59836,2.60981 0,0 -3.13384,-2.45801 -3.13384,-2.45801 v 0 c 1.10808,0.64911 2.21928,1.29292 3.32424,1.94733 0.0667,0.0395 -0.18387,4e-5 -0.22262,-0.0671 -0.0427,-0.0739 0.039,-0.18378 -0.0102,-0.25579 -0.007,-0.26106 -0.0404,-0.51269 -0.1241,-0.76136 -0.0886,-0.14292 -0.22642,-0.25256 0,-0.35392 0.21444,-0.03 0.48579,0.1793 0.68488,0.2539 1.42381,0.8231 -3.98505,-2.30357 -3.06964,-1.78437 11.72567,6.65059 -2.41974,-1.27006 0.59346,0.33525 0.14372,0.18333 0.39102,0.1988 0.35523,0.47988 0.002,0.21359 0.0227,0.42795 -0.002,0.64108 -0.0471,0.28658 -0.18969,0.17948 -0.42742,0.0811 -1.27974,-0.6516 -0.55968,-0.2908 2.84293,1.68138 0.1013,0.0587 -0.19919,-0.12324 -0.29634,-0.1886 -0.268,-0.18031 -0.35328,-0.23786 -0.57656,-0.46747 -0.0695,-0.0714 -0.13016,-0.1509 -0.19524,-0.22635 z" />
    <text
       xml:space="preserve"
       style="font-size:7.05556px;font-family:Arial;-inkscape-font-specification:Arial;text-align:end;writing-mode:lr-tb;direction:ltr;text-anchor:end;fill:#ff0000;stroke-width:0.264583"
       x="139.8123"
       y="124.0588"
       id="text58"><tspan
         sodipodi:role="line"
         id="tspan58"
         style="stroke-width:0.264583;fill:#ff0000"
         x="139.8123"
         y="124.0588">Start</tspan></text>
    <circle
       id="path58"
       style="fill:#ff0000;stroke:#000000;stroke-width:0.264583"
       cx="141.12509"
       cy="179.19606"
       r="0.043715641" />
    <circle
       id="path59"
       style="fill:#ff0000;stroke:#000000;stroke-width:0.264583"
       cx="184.11902"
       cy="191.66756"
       r="0.043715641" />
    <path
       style="fill:#ff0000;stroke-width:0.264583"
       id="path60"
       d="m 183.0203,193.42097 c 0.69774,-0.0605 1.35566,-0.29319 2.02816,-0.46876 0.2238,-0.0285 0.41614,-0.14427 0.61354,-0.24385 0,0 -3.30784,-2.18593 -3.30784,-2.18593 v 0 c -0.1834,0.0812 -0.37008,0.14776 -0.56552,0.19536 -0.65808,0.1985 -1.31739,0.38078 -2.00737,0.43065 z" />
    <path
       style="fill:#ff0000;stroke-width:0.264583"
       id="path61"
       d="m 140.66967,181.20463 c 0.38798,-0.267 0.82862,-0.43076 1.23709,-0.66053 0,0 -3.29558,-2.15216 -3.29558,-2.15216 v 0 c -0.40588,0.21262 -0.82022,0.40863 -1.23285,0.60768 z" />
    <path
       style="fill:#2b0000;stroke-width:0.264583"
       id="path62"
       d="m 227.01438,182.71629 c 0.57157,-0.40239 1.14653,-0.80037 1.72236,-1.19691 0.18868,-0.0834 0.3617,-0.19662 0.53971,-0.29986 0,0 -3.32554,-2.15598 -3.32554,-2.15598 v 0 c -0.18557,0.11053 -0.37622,0.21254 -0.55458,0.33478 -0.56182,0.42638 -1.14198,0.82615 -1.73061,1.21459 z" />
    <path
       style="fill:#2b0000;stroke-width:0.264583"
       id="path63"
       d="m 138.02784,132.64567 c -0.26983,2.42569 -0.35162,4.86672 -0.42832,7.30453 -0.0817,2.98462 -0.0979,5.97056 -0.12164,8.95607 -0.0158,2.21652 -0.0256,4.4331 -0.0211,6.64967 5.3e-4,2.21566 0.0101,4.43129 0.0101,6.64694 -7.9e-4,1.95805 -0.009,3.9161 -0.0302,5.87403 -0.005,0.8991 -0.0289,1.79792 -0.0418,2.69686 -0.0131,0.46399 0.002,0.92808 0.002,1.39211 0.003,0.47639 -0.002,0.95275 -0.009,1.42907 -0.007,0.20575 -0.004,0.41153 -0.009,0.61732 -0.001,0.15816 0.002,0.3164 0.002,0.47461 -5.2e-4,0.21187 0.002,0.42375 0.001,0.63564 5.3e-4,0.046 0.001,0.092 0.002,0.13798 0,0 3.54191,1.80469 3.54191,1.80469 v 0 c 5.2e-4,-0.0453 0.001,-0.0907 0.002,-0.13601 -5.3e-4,-0.21151 0.002,-0.42302 0.001,-0.63452 2.2e-4,-0.15738 0.004,-0.3148 0.002,-0.47213 -0.005,-0.20869 -0.002,-0.41737 -0.009,-0.62602 -0.006,-0.47925 -0.0114,-0.95853 -0.009,-1.43783 -5.3e-4,-0.46342 0.015,-0.9269 0.002,-1.39028 -0.0129,-0.91314 -0.037,-1.82617 -0.0418,-2.73946 -0.0211,-1.96822 -0.0294,-3.93657 -0.0303,-5.9049 -2.6e-4,-2.21287 0.009,-4.42574 0.007,-6.63862 0.002,-2.224 -0.0138,-4.44794 -0.0247,-6.6719 -0.0112,-2.98842 -0.01,-5.97736 0.0782,-8.96482 0.0882,-2.39491 0.15057,-4.81134 0.61315,-7.16955 z" />
    <path
       style="fill:#2b0000;stroke-width:0.264583"
       id="path64"
       d="m 144.9306,182.32826 c 1.36229,-0.0675 2.71779,0.13132 4.06983,0.26917 2.07371,0.2497 4.11305,0.7167 6.15354,1.15278 0.99771,0.26053 2.01961,0.48377 2.97976,0.86919 1.0626,0.42654 3.37377,1.8442 -2.34006,-1.38113 1.14323,0.79226 2.24277,1.64571 3.38932,2.43484 0.21844,0.14188 0.43081,0.29358 0.65532,0.42564 2.12969,1.25283 4.37688,2.67818 6.66888,3.70918 1.19323,0.58174 2.39896,1.12476 3.66346,1.53193 0.91761,0.40208 1.90333,0.57103 2.86138,0.82988 0.68014,0.22885 1.40773,0.20586 2.09823,0.36756 0.49956,0.10815 0.9981,0.23902 1.50861,0.28333 0.0528,0.004 0.10969,-0.009 0.15831,0.0123 0.04,0.0172 0.0553,0.0685 0.0902,0.0947 0.15852,0.11878 0.34794,0.15148 0.53482,0.19605 0.24094,0.0537 0.49251,0.0455 0.7385,0.0464 0.0339,2e-4 0.0678,2.7e-4 0.10164,5.3e-4 0,0 -3.2175,-2.34615 -3.2175,-2.34615 v 0 c -0.0321,-10e-4 -0.0642,-0.002 -0.0963,-0.003 -0.22942,-0.013 -0.45601,-0.0445 -0.67135,-0.12877 -0.27471,-0.10446 -0.51018,-0.26734 -0.81854,-0.24448 -0.49295,-0.0831 -0.98192,-0.18443 -1.47165,-0.28467 -0.69716,-0.099 -1.39766,-0.17864 -2.07583,-0.37966 -0.95221,-0.21634 -1.89067,-0.47713 -2.80431,-0.82637 -1.24377,-0.43987 -2.43834,-0.98992 -3.62793,-1.55869 -0.66709,-0.32279 -1.31517,-0.67067 -1.96251,-1.03151 -0.226,-0.12598 -0.89934,-0.51211 -0.67644,-0.38072 3.2951,1.94233 3.31717,1.96703 1.93482,1.09538 -1.14669,-0.76941 -2.25089,-1.59596 -3.34334,-2.43875 -1.27353,-0.73185 -2.53459,-1.48587 -3.82061,-2.19556 -0.98067,-0.54118 -2.44317,-0.6792 -3.50567,-1.0106 -2.04899,-0.42222 -4.0953,-0.88066 -6.17573,-1.12196 -1.39581,-0.15939 -2.79254,-0.33117 -4.20043,-0.31311 z" />
    <path
       style="fill:#2b0000;stroke-width:0.264583"
       id="path65"
       d="m 190.74227,191.78178 c 3.94588,-0.66991 7.83306,-1.63702 11.73593,-2.51479 3.93675,-0.82364 7.85663,-1.71941 11.77528,-2.6232 1.45774,-0.27872 2.88543,-0.69191 4.34296,-0.97052 0.54243,-0.0411 1.05864,-0.20511 1.59216,-0.30484 0.62704,-0.056 1.23407,-0.22176 1.85715,-0.3132 0.63439,-0.0745 1.24385,-0.27488 1.87704,-0.36559 0.41266,-0.0325 0.77835,-0.24252 1.17513,-0.34635 0.13346,-0.0194 0.26768,-0.0317 0.40206,-0.0424 0,0 -3.24819,-2.29663 -3.24819,-2.29663 v 0 c -0.14658,0.0262 -0.29356,0.052 -0.43525,0.0993 -0.37073,0.12718 -0.72917,0.28977 -1.12673,0.31792 -0.62293,0.11846 -1.23249,0.30471 -1.86529,0.36991 -0.62709,0.10691 -1.25013,0.23422 -1.88088,0.31691 -0.52595,0.1145 -1.05006,0.23101 -1.58074,0.32108 -1.39888,0.35073 -2.7792,0.77351 -4.18751,1.0877 -3.85046,0.97556 -7.70831,1.91742 -11.59526,2.74006 -3.98019,0.88314 -7.96179,1.87945 -12.03115,2.24844 z" />
    <path
       style="fill:#ff0000;stroke-width:0.264583"
       id="path66"
       d="m 227.6582,182.12265 c 0.42778,-0.44806 1.02091,-0.68561 1.47653,-1.09079 0.18673,-0.15839 0.27765,-0.32804 0.32274,-0.56431 0,0 -3.61149,-1.69365 -3.61149,-1.69365 v 0 c 0.23006,-0.11729 -0.0367,0.109 -0.0723,0.16112 -0.45965,0.36975 -0.97177,0.67722 -1.43901,1.03725 z" />
    <path
       style="fill:#ff0000;stroke-width:0.264583"
       id="path67"
       d="m 140.94283,131.64256 c 0.0688,-0.58011 0.27666,-1.13413 0.47804,-1.67957 0.12608,-0.18241 0.24875,-0.36697 0.38092,-0.54516 0.0517,-0.0191 0.15854,-0.60282 0.09,-0.39213 -0.13964,1.55399 -2.44867,-1.20732 -3.36011,-1.75277 0,0 3.58227,1.72406 3.58227,1.72406 v 0 c -1.90053,-1.26494 -2.47823,-3.17426 -3.63927,-2.02869 -0.0989,0.15716 -0.11613,0.24984 -0.11122,0.42789 -0.13859,0.21706 -0.28358,0.43011 -0.41427,0.65207 -0.17965,0.5758 -0.38753,1.14739 -0.50167,1.74 z" />
    <text
       xml:space="preserve"
       style="font-size:7.05556px;font-family:Arial;-inkscape-font-specification:Arial;text-align:end;writing-mode:lr-tb;direction:ltr;text-anchor:end;fill:#2b0000;stroke-width:0.264583"
       x="136.85852"
       y="153.5966"
       id="text67"><tspan
         sodipodi:role="line"
         id="tspan67"
         style="fill:#2b0000;stroke-width:0.264583"
         x="136.85852"
         y="153.5966">PTP</tspan></text>
    <text
       xml:space="preserve"
       style="font-size:7.05556px;font-family:Arial;-inkscape-font-specification:Arial;text-align:end;writing-mode:lr-tb;direction:ltr;text-anchor:end;fill:#2b0000;stroke-width:0.264583"
       x="159.17598"
       y="191.66756"
       id="text68"><tspan
         sodipodi:role="line"
         id="tspan68"
         style="stroke-width:0.264583"
         x="159.17598"
         y="191.66756">PTP</tspan></text>
    <text
       xml:space="preserve"
       style="font-size:7.05556px;font-family:Arial;-inkscape-font-specification:Arial;text-align:end;writing-mode:lr-tb;direction:ltr;text-anchor:end;fill:#2b0000;stroke-width:0.264583"
       x="218.25162"
       y="193.63676"
       id="text69"><tspan
         sodipodi:role="line"
         id="tspan69"
         style="stroke-width:0.264583"
         x="218.25162"
         y="193.63676">PTP</tspan></text>
  </g>
</svg>
